<?xml version='1.0' encoding='utf-8'?>
<svg xmlns:xlink="http://www.w3.org/1999/xlink" xmlns="http://www.w3.org/2000/svg" enable-background="new 0 0 64 64" version="1.1" viewBox="0 0 257.08 257.08"> <defs> <linearGradient id="n"> <stop stop-color="#762c2f" offset="0"/> </linearGradient> <linearGradient id="h" gradientTransform="matrix(1.0042 0 0 1.0042 -281.46 164.89)"> <stop stop-color="#e63946" offset="0"/> </linearGradient> <linearGradient id="i" gradientTransform="translate(6.2335 -3.9341)"> <stop stop-color="#ad8532" offset="0"/> </linearGradient> <linearGradient id="j"> <stop stop-color="#ba9a43" offset="0"/> </linearGradient> <linearGradient id="k" gradientTransform="translate(-3.4865e-7 -4)"> <stop stop-color="#ead278" offset="0"/> </linearGradient> <linearGradient id="l"> <stop stop-color="#cdeae5" offset="0"/> </linearGradient> <linearGradient id="b" gradientTransform="matrix(.57212 0 0 .51114 179.64 54.931)"> <stop stop-color="#77abbd" offset="0"/> </linearGradient> <linearGradient id="m" gradientTransform="matrix(.9375 0 0 1 445.56 50.503)"> <stop stop-color="#43cde5" offset="0"/> </linearGradient> <linearGradient id="o" gradientTransform="translate(125.24 26.995)"> <stop stop-color="#1d3557" offset="0"/> </linearGradient> <linearGradient id="g" gradientTransform="matrix(1.2975 0 0 1.4982 572.76 15.297)"> <stop stop-color="#762c2f" offset="0"/> </linearGradient> <linearGradient id="a" gradientTransform="matrix(1.5091 0 0 2.3968 -294.77 -1364.6)"> <stop stop-color="#31587a" offset="0"/> </linearGradient> <linearGradient id="d" gradientTransform="matrix(1.9998 0 0 1.9998 -1436.2 -144.3)"> <stop stop-color="#17b1bd" offset="0"/> </linearGradient> <linearGradient id="e" gradientTransform="matrix(-1 0 0 .80302 1354.4 70.368)"> <stop stop-color="#457b9d" offset="0"/> </linearGradient> <linearGradient id="f" gradientTransform="translate(6.57 31)"> <stop stop-color="#a8dadc" offset="0"/> </linearGradient> <linearGradient id="c" gradientTransform="matrix(-.27821 0 0 .21608 106.89 193.69)"> <stop stop-color="#f1faee" offset="0"/> </linearGradient> <linearGradient id="t" x1="-67.561" x2="47.787" y1="433.66" y2="433.66" gradientTransform="matrix(1.5382 0 0 1.4503 255.51 -268.21)" gradientUnits="userSpaceOnUse" xlink:href="#o"/> <linearGradient id="s" x1="171.38" x2="220.92" y1="274.99" y2="274.99" gradientTransform="translate(1.9239e-6 -4)" gradientUnits="userSpaceOnUse" xlink:href="#k"/> <linearGradient id="r" x1="171.38" x2="220.92" y1="274.99" y2="274.99" gradientUnits="userSpaceOnUse" xlink:href="#j"/> <linearGradient id="q" x1="201.04" x2="234.82" y1="276.24" y2="276.24" gradientUnits="userSpaceOnUse" xlink:href="#i"/> <linearGradient id="p" x1="243.21" x2="251.49" y1="239.31" y2="239.31" gradientUnits="userSpaceOnUse" xlink:href="#n"/> </defs> <g transform="translate(-32.948 -193.99)"> <rect x="32.948" y="193.99" width="257.08" height="257.08" fill="url(#h)" stroke-width="4.8558" style="-inkscape-stroke:none;paint-order:stroke fill markers"/> <path transform="translate(0,32)" d="m62.616 334-9.7308-5.9062c-4.5728-2.7754-4.5724-9.4116 6.09e-4 -12.187l9.7348-5.9072 98.877-60.011 98.861 59.998 9.8121 5.9558a7.0725 7.0725 90.004 0 1-7.6e-4 12.092l-9.8113 5.9537-75.801 46.017-10.819 6.5561c-7.5389 4.5682-16.993 4.5637-24.527-0.0119l-10.793-6.5542" fill="url(#g)" stroke-width="2" style="-inkscape-stroke:none;paint-order:stroke fill markers"/> <path d="m161.5 265.99-92.285 56.01h-19.777v16h0.01953c-1.86e-4 0.58836 0.07202 1.1768 0.21484 1.75 0.14282 0.57316 0.35676 1.1303 0.64258 1.6582s0.64347 1.026 1.0723 1.4785c0.4288 0.45249 0.92825 0.86 1.5 1.207l9.7305 5.9062 75.803 45.996 10.793 6.5547c0.77114 0.4683 1.5736 0.85793 2.3809 1.2305v-117.96h42.582z" fill="url(#a)" stroke-width="2" style="paint-order:stroke fill markers"/> <path d="m194.17 285.82h-42.582v117.96c0.17865 0.0824 0.34716 0.19373 0.52734 0.27148 0.9943 0.42909 2.0112 0.78603 3.043 1.0723 1.0318 0.28623 2.0784 0.50116 3.1328 0.64453s2.1158 0.21629 3.1777 0.21679c1.0619 5.1e-4 2.1232-0.0705 3.1777-0.21289 1.0545-0.14237 2.1027-0.35732 3.1348-0.64257 1.0321-0.28526 2.0482-0.64218 3.043-1.0703 0.99472-0.42814 1.9678-0.92701 2.9102-1.498l10.82-6.5566 75.799-46.016 9.8125-5.9551a7.0725 7.0725 0 0 0 0.68164-0.47461 7.0725 7.0725 0 0 0 0.6211-0.55078 7.0725 7.0725 0 0 0 0.55078-0.62109 7.0725 7.0725 0 0 0 0.47656-0.68164 7.0725 7.0725 0 0 0 0.39258-0.73047 7.0725 7.0725 0 0 0 0.30273-0.77344 7.0725 7.0725 0 0 0 0.21094-0.80273 7.0725 7.0725 0 0 0 0.11719-0.82227 7.0725 7.0725 0 0 0 0.0176-0.83008v-15.758h-19.77z" fill="url(#t)" stroke-width="4.9787" style="paint-order:stroke fill markers"/> <path d="m62.616 334-9.7308-5.9062c-4.5728-2.7754-4.5724-9.4116 6.09e-4 -12.187l9.7348-5.9072 98.877-60.011 98.861 59.998 9.8121 5.9558a7.0725 7.0725 90.004 0 1-7.6e-4 12.092l-9.8113 5.9537-75.801 46.017-10.819 6.5561c-7.5389 4.5682-16.993 4.5637-24.527-0.0119l-10.793-6.5542" fill="url(#e)" stroke-width="2" style="-inkscape-stroke:none;paint-order:stroke fill markers"/> <path d="m161.49 254.01-72.502 43.992h-32.959v24h0.10352c-4e-5 0.59579 0.07216 1.191 0.2168 1.7715s0.36103 1.147 0.65039 1.6816c0.28936 0.53468 0.65181 1.0378 1.0859 1.4961 0.43412 0.45832 0.9406 0.87121 1.5195 1.2226l9.6016 5.8301 72.51 43.994 7.5156 4.5644c0.94155 0.57195 1.9122 1.0729 2.9062 1.502 0.90157 0.38911 1.8268 0.70109 2.7598 0.97265v-109.04h42.828z" fill="url(#f)" stroke-width="2" style="paint-order:stroke fill markers"/> <path d="m197.72 275.99h-42.828v109.04c0.0957 0.0279 0.18722 0.073 0.28321 0.0996 1.0316 0.28613 2.0787 0.50133 3.1328 0.64453s2.1161 0.21458 3.1777 0.21485 2.1236-0.0702 3.1777-0.21289c1.0542-0.14267 2.0992-0.35697 3.1309-0.64258s2.0487-0.6437 3.043-1.0723c0.99423-0.42856 1.9664-0.92847 2.9082-1.5l7.5117-4.5605 72.516-44.012 9.7383-5.9141a7.1213 7.1213 0 0 0 2.5098-2.5938 7.1213 7.1213 0 0 0 0.91602-3.4922h0.0137v-24h-32.959z" fill="url(#e)" stroke-width="2" style="paint-order:stroke fill markers"/> <path d="m65.914 308-6.3664-3.8641c-4.6061-2.7956-4.6059-9.48 2.19e-4 -12.275l6.3654-3.8632 79.096-48.016 4.2124-2.5532c7.544-4.5726 17.005-4.5699 24.546 7e-3l86.59 52.554 3.164 1.9195c4.5668 2.7705 4.5672 9.3973 7.3e-4 12.168l-89.686 54.423a23.818 23.818 0.0017883 0 1-24.714-7.7e-4l-7.4161-4.5008" fill="url(#c)" stroke-width="2" style="-inkscape-stroke:none;paint-order:stroke fill markers"/> <path d="m75.801 290 73.424-44.561a23.65 23.65 179.99 0 1 24.53-6e-3l0.93314 0.56567 69.192 41.995 6.4131 3.8916c4.5842 2.7818 4.6994 9.3682 0.11539 12.15l-6.5285 3.9582-70.069 42.524c-7.5788 4.5996-17.088 4.5996-24.666 0l-10.726-6.5099-62.614-38.005-3.1802-1.9298c-4.5574-2.7655-4.5576-9.379-3.65e-4 -12.145z" fill="url(#d)" stroke-width="2" style="-inkscape-stroke:none;paint-order:stroke fill markers"/> <g transform="matrix(1.9476 1.1245 -1.9476 1.1245 966.01 -274.23)" stroke-width="2"> <path d="m31.116 448.43 3.9045 0.0972 0.69279 27.767-3.9045-0.0972z" fill="url(#b)" style="paint-order:stroke fill markers"/> <path d="m27.212 448.33 3.9045 0.0972 0.69279 27.767-3.9045-0.0971z" fill="url(#c)" style="paint-order:stroke fill markers"/> <path d="m23.307 448.23 3.9045 0.0971 0.69279 27.767-3.9045-0.0971z" fill="url(#b)" style="paint-order:stroke fill markers"/> <path d="m38.925 448.62 0.69314 27.769 9.9781 0.24766-1.1699-29.514z" fill="url(#b)" style="paint-order:stroke fill markers"/> <path d="m52.331 447.22 3.9045 0.0971 1.1699 29.514-3.9045-0.095z" fill="url(#b)" style="paint-order:stroke fill markers"/> <path d="m60.14 447.41 3.9038 0.0974 0.73691 29.507-3.9046-0.1001z" fill="url(#b)" style="paint-order:stroke fill markers"/> <path d="m67.949 447.61 3.9045 0.0971 0.73965 29.506-3.9081-0.10072z" fill="url(#b)" style="paint-order:stroke fill markers"/> <path d="m35.021 448.52 3.9045 0.0971 0.69279 27.767-3.9045-0.0972z" fill="url(#c)" style="paint-order:stroke fill markers"/> <path d="m48.426 447.12 3.903 0.0956 1.1737 29.517-3.9068-0.0994z" fill="url(#c)" style="paint-order:stroke fill markers"/> <path d="m56.235 447.32 3.9045 0.0971 0.73615 29.506-3.4708-0.089z" fill="url(#c)" style="paint-order:stroke fill markers"/> <path d="m64.044 447.51 3.9045 0.0979 0.73609 29.503-3.9045-0.0971z" fill="url(#c)" style="paint-order:stroke fill markers"/> </g> <g stroke-width="2"> <path d="m112.06 267.99-0.01 4.0078 92.279 55.996v-43.074z" fill="url(#a)" style="paint-order:stroke fill markers"/> <path d="m204.33 284.92v43.074l49.436-30.002v-4.002z" fill="url(#o)" style="paint-order:stroke fill markers"/> <path d="m204.33 323.99 49.435-30.002-92.279-55.996-49.435 30.002c32.502 19.262 59.633 36.953 92.279 55.996z" fill="url(#e)" style="-inkscape-stroke:none;paint-order:stroke fill markers"/> </g> <g transform="translate(332.93 6.0052)"> <path d="m-168.08 241.75c-0.23142 0-0.46224 2e-3 -0.69336 8e-3s-0.46314 0.0156-0.69336 0.0273c-0.23021 0.0117-0.45879 0.0254-0.6875 0.043s-0.45699 0.0391-0.68359 0.0625-0.45189 0.0489-0.67578 0.0781c-0.22389 0.0293-0.44544 0.0625-0.66602 0.0976-0.22057 0.0351-0.43959 0.0723-0.65625 0.11328-0.21665 0.041-0.43239 0.084-0.64453 0.13086-0.21214 0.0468-0.4219 0.0977-0.6289 0.15039-0.20702 0.0527-0.41004 0.10749-0.61133 0.16602-0.20129 0.0585-0.40075 0.12117-0.59571 0.18555-0.19496 0.0644-0.38619 0.13094-0.57421 0.20117-0.18804 0.0702-0.37224 0.14267-0.55274 0.21875-0.1805 0.0761-0.35693 0.15635-0.5293 0.23828-0.17236 0.0819-0.34028 0.16612-0.5039 0.2539-0.16363 0.0878-0.32424 0.17786-0.47852 0.27149-0.15428 0.0936-0.30262 0.19171-0.44726 0.29101s-0.28493 0.20009-0.41993 0.30469c-0.13499 0.10461-0.26527 0.21273-0.39062 0.32227-0.0284 0.0248-0.0541 0.0511-0.082 0.0762h-2.3594v5.0606c1e-3 0.12018 3e-3 0.23934 0.0117 0.35937 0.01 0.14026 0.0237 0.28022 0.043 0.41992 0.0193 0.13971 0.0433 0.27918 0.0723 0.41797 0.0289 0.13879 0.063 0.27655 0.10156 0.41406 0.0386 0.13752 0.0827 0.27429 0.13086 0.41016 0.0482 0.13587 0.10035 0.2724 0.1582 0.40625 0.0579 0.13386 0.12 0.26501 0.1875 0.39649 0.0675 0.13147 0.14161 0.26189 0.21875 0.39062 0.0449 0.075 0.0944 0.14872 0.14258 0.22266 0.0346 0.053 0.0653 0.10768 0.10156 0.16015 0.0868 0.12563 0.17897 0.24895 0.27539 0.3711 0.0964 0.12215 0.19862 0.24302 0.30469 0.36132 0.10607 0.11831 0.21632 0.23356 0.33203 0.34766s0.23598 0.22641 0.36133 0.33594 0.25563 0.21767 0.39062 0.32226c0.135 0.1046 0.27529 0.2054 0.41993 0.30469 0.14464 0.0993 0.29298 0.19544 0.44726 0.28906 0.15428 0.0936 0.31489 0.18567 0.47852 0.27344 0.16362 0.0878 0.33154 0.17199 0.5039 0.25391 0.17236 0.0819 0.3488 0.16026 0.5293 0.23633 0.1805 0.0761 0.3647 0.15049 0.55274 0.2207 0.18802 0.0702 0.37925 0.13681 0.57421 0.20117 0.19496 0.0644 0.39442 0.12509 0.59571 0.18359s0.40431 0.11532 0.61133 0.16797c0.207 0.0527 0.41676 0.10164 0.6289 0.14844s0.42788 0.0919 0.64453 0.13281c0.21666 0.041 0.43568 0.0782 0.65625 0.11328 0.22058 0.0351 0.44213 0.0665 0.66602 0.0957s0.44918 0.0567 0.67578 0.0801 0.45488 0.043 0.68359 0.0605c0.22871 0.0176 0.45729 0.0332 0.6875 0.0449 0.23022 0.0117 0.46224 0.0196 0.69336 0.0254 0.23112 6e-3 0.46194 0.01 0.69336 0.01v-16.24h3.5703c-0.0458-6e-3 -0.0908-0.0135-0.13671-0.0195-0.22389-0.0293-0.44918-0.0547-0.67579-0.0781-0.2266-0.0234-0.45488-0.045-0.68359-0.0625s-0.45728-0.0313-0.6875-0.043-0.46224-0.0215-0.69336-0.0273c-0.23112-6e-3 -0.46194-8e-3 -0.69336-8e-3z" fill="url(#b)" stroke-width="1.8612" style="paint-order:stroke fill markers"/> <path d="m-164.51 241.99h-3.5703v16.24c0.23142-1e-5 0.46224-4e-3 0.69336-0.01s0.46314-0.0137 0.69336-0.0254 0.45879-0.0274 0.6875-0.0449c0.22871-0.0176 0.45699-0.0371 0.68359-0.0605s0.4519-0.0508 0.67579-0.0801c0.22388-0.0293 0.44544-0.0606 0.66601-0.0957 0.22058-0.0351 0.43959-0.0743 0.65625-0.11523 0.21666-0.041 0.4324-0.084 0.64453-0.13086 0.21214-0.0468 0.42189-0.0958 0.62891-0.14844 0.20701-0.0527 0.41004-0.10944 0.61133-0.16797 0.20129-0.0585 0.40074-0.11921 0.5957-0.18359 0.19496-0.0644 0.38619-0.1329 0.57422-0.20312 0.18803-0.0702 0.37224-0.14267 0.55273-0.21875 0.1805-0.0761 0.35694-0.1544 0.5293-0.23633 0.17236-0.0819 0.34028-0.16808 0.50391-0.25586 0.16362-0.0878 0.32423-0.17785 0.47851-0.27149 0.15428-0.0936 0.30263-0.18976 0.44727-0.28906s0.28492-0.20204 0.41992-0.30664 0.26527-0.21077 0.39062-0.32031c0.12536-0.10954 0.24562-0.22183 0.36133-0.33594s0.22597-0.23129 0.33203-0.34961c0.10607-0.11832 0.20827-0.23722 0.30469-0.35937 0.0964-0.12216 0.18666-0.24742 0.27344-0.37305 0.036-0.0521 0.0672-0.10556 0.10156-0.1582 0.0485-0.0743 0.0994-0.14729 0.14453-0.22266 0.0771-0.12874 0.1493-0.25914 0.2168-0.39062 0.0675-0.13149 0.1316-0.26458 0.18945-0.39844 0.0579-0.13386 0.10999-0.26843 0.15821-0.4043 0.0482-0.13587 0.0923-0.27264 0.13086-0.41016 0.0386-0.13751 0.0726-0.27526 0.10156-0.41406 0.0289-0.13879 0.053-0.27826 0.0723-0.41797s0.0333-0.27966 0.043-0.41992c7e-3 -0.1 8e-3 -0.20066 0.01-0.30078v-5.1191h-2.3555c-0.0286-0.0257-0.0548-0.0527-0.084-0.0781-0.12535-0.10953-0.25562-0.21572-0.39062-0.32031s-0.27528-0.20735-0.41992-0.30664c-0.14464-0.0993-0.29299-0.19544-0.44727-0.28906-0.15428-0.0936-0.31489-0.18372-0.47851-0.27149-0.16363-0.0878-0.33155-0.17394-0.50391-0.25585-0.17236-0.0819-0.3488-0.16027-0.5293-0.23633-0.18049-0.0761-0.3647-0.14854-0.55273-0.21875-0.18803-0.0702-0.37926-0.13877-0.57422-0.20313-0.19496-0.0644-0.39441-0.12508-0.5957-0.18359-0.20129-0.0585-0.40432-0.11336-0.61133-0.16602-0.20702-0.0526-0.41677-0.10358-0.62891-0.15039-0.21213-0.0468-0.42787-0.0899-0.64453-0.13086-0.21666-0.041-0.43567-0.0801-0.65625-0.11523-0.1753-0.0279-0.35208-0.0522-0.5293-0.0762z" fill="url(#e)" stroke-width="2" style="paint-order:stroke fill markers"/> <path transform="matrix(1.4982 0 0 1.4982 83.735 -98.579)" d="m-174.67 225.99c3.2953-1.9999 9.886-2.0002 13.181-5.4e-4 3.2954 1.9996 3.2954 5.9992 0 7.9992-3.2953 1.9999-9.886 2.0002-13.181 5.4e-4 -3.2954-1.9996-3.2954-5.9992 0-7.9992z" fill="url(#f)" stroke-width="3.9996" style="-inkscape-stroke:none;paint-order:stroke fill markers"/> <path d="m-168.08 225.49c-0.30893 1e-5 -0.61845 8e-3 -0.92578 0.0234-0.30733 0.0156-0.61156 0.0391-0.91406 0.0703-0.3025 0.0313-0.60203 0.0703-0.89649 0.11719-0.29445 0.0469-0.58399 0.10155-0.86718 0.16406-0.2832 0.0625-0.56137 0.13281-0.83008 0.21094-0.26871 0.0781-0.52829 0.16406-0.7793 0.25781-0.25101 0.0937-0.49257 0.19531-0.72265 0.30469-0.11505 0.0547-0.22673 0.11133-0.33594 0.16992-0.10922 0.0586-0.21538 0.11914-0.31836 0.18164s-0.20424 0.12708-0.30078 0.19336c-0.0965 0.0663-0.18919 0.1333-0.2793 0.20312-0.0901 0.0698-0.1761 0.14173-0.25977 0.21485-0.0837 0.0731-0.16495 0.14844-0.24218 0.22461-0.0772 0.0762-0.15186 0.15345-0.22266 0.23242-0.0708 0.079-0.13876 0.1587-0.20312 0.24023-0.0644 0.0815-0.12373 0.16419-0.18164 0.24805-0.0579 0.0839-0.11453 0.16993-0.16602 0.25586-0.0515 0.0859-0.0995 0.172-0.14453 0.25977-0.0451 0.0878-0.0864 0.17627-0.125 0.26562-0.0386 0.0893 0.9267 0.17884 0.89453 0.26953-0.0322 0.0907-1.0622 0.18165-1.0879 0.27344-0.0258 0.0918-0.0471 0.1847-0.0664 0.27734-0.0193 0.0926-0.0359 0.18605-0.0488 0.2793-0.0129 0.0932 0.9771-0.81432 0.9707-0.7207-6e-3 0.0936-1.01 0.18751-1.01 0.28125v16c0 0.0937 3e-3 0.18763 0.01 0.28125 6e-3 0.0936 0.0164 0.188 0.0293 0.28125 0.0129 0.0932 0.0295 0.18665 0.0488 0.27929 0.0193 0.0926 0.0407 0.18361 0.0664 0.27539 0.0257 0.0918 0.0557 0.18471 0.0879 0.27539 0.0322 0.0907 0.0669 0.18019 0.10547 0.26954 0.0386 0.0893 0.0799 0.17786 0.125 0.26562 0.0451 0.0878 0.093 0.17384 0.14453 0.25977 0.0515 0.0859 0.10809 0.172 0.16602 0.25586 0.0579 0.0839 0.11727 0.16651 0.18164 0.24804 0.0644 0.0815 0.13232 0.16127 0.20312 0.24024 0.0708 0.079 0.14542 0.15626 0.22266 0.23242 0.0772 0.0762 0.15851 0.1515 0.24218 0.22461 0.0837 0.0731 0.16966 0.14503 0.25977 0.21484 0.0901 0.0698 0.18275 0.13685 0.2793 0.20313 0.0965 0.0663 0.1978 0.13087 0.30078 0.19336 0.10298 0.0625 0.20914 0.12305 0.31836 0.18164 0.10921 0.0586 0.22089 0.11524 0.33594 0.16992 0.23008 0.10935 0.47164 0.21096 0.72265 0.30469 0.25101 0.0937 0.51059 0.1797 0.7793 0.25781 0.26871 0.0781 0.54688 0.14845 0.83008 0.21094 0.28319 0.0625 0.57273 0.1172 0.86718 0.16406 0.29446 0.0469 0.59399 0.086 0.89649 0.11719 0.3025 0.0312 0.60673 0.0547 0.91406 0.0703s0.61684 0.0235 0.92578 0.0234v-15z" fill="url(#b)" stroke-width="3.9996" style="paint-order:stroke fill markers"/> <path d="m-168.14 227.83v20.967c0.0209 0 0.0416-2e-3 0.0625-2e-3v2.6992c0.30894-2e-5 0.61845-8e-3 0.92578-0.0234 0.30733-0.0156 0.61156-0.039 0.91407-0.0703 0.3025-0.0313 0.60202-0.0703 0.89648-0.11719 0.29446-0.0469 0.58399-0.10156 0.86719-0.16406 0.28319-0.0625 0.56136-0.13281 0.83008-0.21094 0.13435-0.0391 0.26635-0.0801 0.39648-0.12305 0.13013-0.043 0.25731-0.0879 0.38281-0.13476 0.12551-0.0469 0.24867-0.0957 0.36914-0.14649 0.12048-0.0508 0.23847-0.10351 0.35352-0.1582 0.11505-0.0547 0.22672-0.11133 0.33594-0.16992 0.10921-0.0586 0.21538-0.11915 0.31836-0.18164 0.10298-0.0625 0.20423-0.12708 0.30078-0.19336 0.0965-0.0663 0.18919-0.13526 0.27929-0.20508 0.0901-0.0698 0.1761-0.13978 0.25977-0.21289 0.0837-0.0731 0.16495-0.14844 0.24219-0.22461 0.0772-0.0762 0.15185-0.15345 0.22265-0.23242 0.0708-0.079 0.13877-0.16065 0.20313-0.24219 0.0644-0.0815 0.12371-0.16419 0.18164-0.24805 0.0579-0.0838 0.11257-0.16797 0.16406-0.2539 0.0515-0.0859 0.10143-0.17201 0.14649-0.25977 0.045-0.0878 0.0864-0.17823 0.125-0.26758 0.0386-0.0893 0.0733-0.17884 0.10546-0.26953 0.0322-0.0907 0.0622-0.18165 0.0879-0.27344 0.0257-0.0918 0.0471-0.1847 0.0664-0.27734 0.0193-0.0926 0.036-0.18409 0.0488-0.27734 0.0129-0.0933 0.0229-0.18763 0.0293-0.28125 6e-3 -0.0936 0.01-0.18751 0.01-0.28125 0-0.0918-3e-3 -0.18372-0.01-0.27539-1.5e-4 -2e-3 1.4e-4 -4e-3 0-6e-3 7e-3 -0.11954 0.01-1.1166 0.01-1.1875v-12.426c0-0.0728-4e-3 -2.146-0.01-2.2188s-0.0164-0.1444-0.0293-0.2168-0.0295-0.1448-0.0488-0.2168c-0.0193-0.0719-0.0406-0.14354-0.0664-0.21484-0.0257-0.0713-0.1182-0.14249-0.1504-0.21289s-0.0669 1.8604-0.10546 1.791c-0.0386-0.0694-0.0799-0.13883-0.125-0.20703-0.045-0.0682-0.093-0.13447-0.14454-0.20117-0.0515-0.0667-0.10811-0.13412-0.16601-0.19922s-0.11724-0.13006-0.18164-0.19336-0.13233-0.12425-0.20313-0.18555-0.14545-0.12244-0.22265-0.18164-0.15849-0.11702-0.24219-0.17382-0.16967-0.11182-0.25977-0.16602-0.18279-0.1067-0.27929-0.1582-0.1978-0.10179-0.30078-0.15039-0.20914-0.0951-0.31836-0.14063c-0.10921-0.0455-0.22089-0.0903-0.33594-0.13281-0.23009-0.085-0.47165-0.16363-0.72266-0.23633-0.25101-0.0728-0.51058-0.13852-0.77929-0.19922s-0.54688-0.11546-0.83008-0.16406c-0.28319-0.0485-0.57274-0.0925-0.86719-0.12891-0.29446-0.0364-0.59398-0.0655-0.89648-0.0898-0.3025-0.0242-0.60674-0.0426-0.91407-0.0547-0.30733-0.0122-0.61685-0.0176-0.92578-0.0176z" fill="url(#e)" stroke-width="3.5248" style="paint-order:stroke fill markers"/> <path d="m-168.08 234.99-0.82422-0.5v16.979c0.27402 0.0124 0.54917 0.0216 0.82422 0.0215v-15z" fill="url(#a)" stroke-width="2" style="paint-order:stroke fill markers"/> <path d="m-171.37 251.17v-17.141l-0.82422-0.54102v17.492c0.17096 0.0448 0.33972 0.092 0.51563 0.13086 0.10078 0.0222 0.20626 0.0383 0.30859 0.0586z" fill="url(#a)" stroke-width="2.0817" style="paint-order:stroke fill markers"/> <path d="m-174.67 249.99v-16.957l-0.82422-0.54102v16.9c0.0788 0.0685 0.15958 0.13566 0.24414 0.20117 0.0901 0.0698 0.18275 0.13685 0.2793 0.20313 0.0965 0.0663 0.1978 0.13087 0.30078 0.19336z" fill="url(#a)" stroke-width="2.0817" style="paint-order:stroke fill markers"/> <path d="m-164.78 251.18v-16.688l-0.82422-0.5v17.324c0.0875-0.0124 0.17704-0.0214 0.26367-0.0352 0.14723-0.0234 0.29291-0.0488 0.4375-0.0762 0.0414-8e-3 0.0819-0.0172 0.12305-0.0254z" fill="url(#a)" stroke-width="2" style="paint-order:stroke fill markers"/> <path d="m-161.49 249.99v-16.498l-0.82422-0.5v17.426c0.0558-0.0251 0.11342-0.0483 0.16797-0.0742 0.11505-0.0547 0.22672-0.11133 0.33594-0.16992 0.10921-0.0586 0.21538-0.11915 0.31836-0.18164z" fill="url(#a)" stroke-width="2" style="paint-order:stroke fill markers"/> <path d="m-159.84 230.23v18.258c0.0125-0.0178 0.0267-0.0348 0.0391-0.0527 0.0579-0.0838 0.11257-0.16797 0.16406-0.2539 0.0515-0.0859 0.10143-0.17201 0.14649-0.25977 0.045-0.0878 0.0864-0.17823 0.125-0.26758 0.0386-0.0893 0.0733-0.17884 0.10546-0.26953 0.0322-0.0907 0.0622-0.18165 0.0879-0.27344 0.0257-0.0918 0.0471-0.1847 0.0664-0.27734 0.0193-0.0926 0.036-0.18409 0.0488-0.27734 0.0129-0.0933 0.0229-0.18763 0.0293-0.28125 6e-3 -0.0936 0.01-0.18751 0.01-0.28125 0-0.0918-3e-3 -0.18372-0.01-0.27539-1.5e-4 -2e-3 1.4e-4 -4e-3 0-6e-3 7e-3 -0.11954 0.01-1.1166 0.01-1.1875v-12.426c0-0.0674-5e-3 -1.7292-0.01-2.0527l-0.33985-0.26758c-2e-3 0.0488-4e-3 0.0854-6e-3 0.13477-9e-3 0.23262-0.0182 0.46656-0.0273 0.63672-5e-3 0.0851-9e-3 0.1532-0.0137 0.19922-5e-3 0.046-9e-3 0.0692-0.0137 0.0605-0.0386-0.0694-0.0799-0.13883-0.125-0.20703-0.045-0.0682-0.093-0.13447-0.14454-0.20117-0.0443-0.0575-0.0931-0.11532-0.14257-0.17188z" fill="url(#a)" stroke-width="2.2667" style="paint-order:stroke fill markers"/> <path d="m-174.67 225.99c3.2953-1.9999 9.886-2.0002 13.181-5.4e-4 3.2954 1.9996 3.2954 5.9992 0 7.9992-3.2953 1.9999-9.886 2.0002-13.181 5.4e-4 -3.2954-1.9996-3.2954-5.9992 0-7.9992z" fill="url(#f)" stroke-width="3.9996" style="-inkscape-stroke:none;paint-order:stroke fill markers"/> </g> <g stroke-width="2"> <path d="m201.04 289.99v-24.02l-29.662 2.0203-9e-5 3.9992z" fill="url(#r)" style="paint-order:stroke fill markers"/> <path d="m201.04 289.99 19.887-11.994-0.11362-4.0071-19.774 12.001z" fill="url(#q)" style="paint-order:stroke fill markers"/> <path d="m171.38 267.99 19.774-12.001 29.774 18.006-19.887 11.993z" fill="url(#s)" style="-inkscape-stroke:none;paint-order:stroke fill markers"/> <path d="m177.97 267.99 13.183-8.0005 23.07 13.999-13.183 8.0005z" fill="url(#c)" style="-inkscape-stroke:none;paint-order:stroke fill markers"/> </g> <g transform="translate(395.59 44.008)"> <path d="m-168.08 241.75c-0.23142 0-0.46224 2e-3 -0.69336 8e-3s-0.46314 0.0156-0.69336 0.0273c-0.23021 0.0117-0.45879 0.0254-0.6875 0.043s-0.45699 0.0391-0.68359 0.0625-0.45189 0.0489-0.67578 0.0781c-0.22389 0.0293-0.44544 0.0625-0.66602 0.0976-0.22057 0.0351-0.43959 0.0723-0.65625 0.11328-0.21665 0.041-0.43239 0.084-0.64453 0.13086-0.21214 0.0468-0.4219 0.0977-0.6289 0.15039-0.20702 0.0527-0.41004 0.10749-0.61133 0.16602-0.20129 0.0585-0.40075 0.12117-0.59571 0.18555-0.19496 0.0644-0.38619 0.13094-0.57421 0.20117-0.18804 0.0702-0.37224 0.14267-0.55274 0.21875-0.1805 0.0761-0.35693 0.15635-0.5293 0.23828-0.17236 0.0819-0.34028 0.16612-0.5039 0.2539-0.16363 0.0878-0.32424 0.17786-0.47852 0.27149-0.15428 0.0936-0.30262 0.19171-0.44726 0.29101s-0.28493 0.20009-0.41993 0.30469c-0.13499 0.10461-0.26527 0.21273-0.39062 0.32227-0.0284 0.0248-0.0541 0.0511-0.082 0.0762h-2.3594v5.0606c1e-3 0.12018 3e-3 0.23934 0.0117 0.35937 0.01 0.14026 0.0237 0.28022 0.043 0.41992 0.0193 0.13971 0.0433 0.27918 0.0723 0.41797 0.0289 0.13879 0.063 0.27655 0.10156 0.41406 0.0386 0.13752 0.0827 0.27429 0.13086 0.41016 0.0482 0.13587 0.10035 0.2724 0.1582 0.40625 0.0579 0.13386 0.12 0.26501 0.1875 0.39649 0.0675 0.13147 0.14161 0.26189 0.21875 0.39062 0.0449 0.075 0.0944 0.14872 0.14258 0.22266 0.0346 0.053 0.0653 0.10768 0.10156 0.16015 0.0868 0.12563 0.17897 0.24895 0.27539 0.3711 0.0964 0.12215 0.19862 0.24302 0.30469 0.36132 0.10607 0.11831 0.21632 0.23356 0.33203 0.34766s0.23598 0.22641 0.36133 0.33594 0.25563 0.21767 0.39062 0.32226c0.135 0.1046 0.27529 0.2054 0.41993 0.30469 0.14464 0.0993 0.29298 0.19544 0.44726 0.28906 0.15428 0.0936 0.31489 0.18567 0.47852 0.27344 0.16362 0.0878 0.33154 0.17199 0.5039 0.25391 0.17236 0.0819 0.3488 0.16026 0.5293 0.23633 0.1805 0.0761 0.3647 0.15049 0.55274 0.2207 0.18802 0.0702 0.37925 0.13681 0.57421 0.20117 0.19496 0.0644 0.39442 0.12509 0.59571 0.18359s0.40431 0.11532 0.61133 0.16797c0.207 0.0527 0.41676 0.10164 0.6289 0.14844s0.42788 0.0919 0.64453 0.13281c0.21666 0.041 0.43568 0.0782 0.65625 0.11328 0.22058 0.0351 0.44213 0.0665 0.66602 0.0957s0.44918 0.0567 0.67578 0.0801 0.45488 0.043 0.68359 0.0605c0.22871 0.0176 0.45729 0.0332 0.6875 0.0449 0.23022 0.0117 0.46224 0.0196 0.69336 0.0254 0.23112 6e-3 0.46194 0.01 0.69336 0.01v-16.24h3.5703c-0.0458-6e-3 -0.0908-0.0135-0.13671-0.0195-0.22389-0.0293-0.44918-0.0547-0.67579-0.0781-0.2266-0.0234-0.45488-0.045-0.68359-0.0625s-0.45728-0.0313-0.6875-0.043-0.46224-0.0215-0.69336-0.0273c-0.23112-6e-3 -0.46194-8e-3 -0.69336-8e-3z" fill="url(#b)" stroke-width="1.8612" style="paint-order:stroke fill markers"/> <path d="m-164.51 241.99h-3.5703v16.24c0.23142-1e-5 0.46224-4e-3 0.69336-0.01s0.46314-0.0137 0.69336-0.0254 0.45879-0.0274 0.6875-0.0449c0.22871-0.0176 0.45699-0.0371 0.68359-0.0605s0.4519-0.0508 0.67579-0.0801c0.22388-0.0293 0.44544-0.0606 0.66601-0.0957 0.22058-0.0351 0.43959-0.0743 0.65625-0.11523 0.21666-0.041 0.4324-0.084 0.64453-0.13086 0.21214-0.0468 0.42189-0.0958 0.62891-0.14844 0.20701-0.0527 0.41004-0.10944 0.61133-0.16797 0.20129-0.0585 0.40074-0.11921 0.5957-0.18359 0.19496-0.0644 0.38619-0.1329 0.57422-0.20312 0.18803-0.0702 0.37224-0.14267 0.55273-0.21875 0.1805-0.0761 0.35694-0.1544 0.5293-0.23633 0.17236-0.0819 0.34028-0.16808 0.50391-0.25586 0.16362-0.0878 0.32423-0.17785 0.47851-0.27149 0.15428-0.0936 0.30263-0.18976 0.44727-0.28906s0.28492-0.20204 0.41992-0.30664 0.26527-0.21077 0.39062-0.32031c0.12536-0.10954 0.24562-0.22183 0.36133-0.33594s0.22597-0.23129 0.33203-0.34961c0.10607-0.11832 0.20827-0.23722 0.30469-0.35937 0.0964-0.12216 0.18666-0.24742 0.27344-0.37305 0.036-0.0521 0.0672-0.10556 0.10156-0.1582 0.0485-0.0743 0.0994-0.14729 0.14453-0.22266 0.0771-0.12874 0.1493-0.25914 0.2168-0.39062 0.0675-0.13149 0.1316-0.26458 0.18945-0.39844 0.0579-0.13386 0.10999-0.26843 0.15821-0.4043 0.0482-0.13587 0.0923-0.27264 0.13086-0.41016 0.0386-0.13751 0.0726-0.27526 0.10156-0.41406 0.0289-0.13879 0.053-0.27826 0.0723-0.41797s0.0333-0.27966 0.043-0.41992c7e-3 -0.1 8e-3 -0.20066 0.01-0.30078v-5.1191h-2.3555c-0.0286-0.0257-0.0548-0.0527-0.084-0.0781-0.12535-0.10953-0.25562-0.21572-0.39062-0.32031s-0.27528-0.20735-0.41992-0.30664c-0.14464-0.0993-0.29299-0.19544-0.44727-0.28906-0.15428-0.0936-0.31489-0.18372-0.47851-0.27149-0.16363-0.0878-0.33155-0.17394-0.50391-0.25585-0.17236-0.0819-0.3488-0.16027-0.5293-0.23633-0.18049-0.0761-0.3647-0.14854-0.55273-0.21875-0.18803-0.0702-0.37926-0.13877-0.57422-0.20313-0.19496-0.0644-0.39441-0.12508-0.5957-0.18359-0.20129-0.0585-0.40432-0.11336-0.61133-0.16602-0.20702-0.0526-0.41677-0.10358-0.62891-0.15039-0.21213-0.0468-0.42787-0.0899-0.64453-0.13086-0.21666-0.041-0.43567-0.0801-0.65625-0.11523-0.1753-0.0279-0.35208-0.0522-0.5293-0.0762z" fill="url(#e)" stroke-width="2" style="paint-order:stroke fill markers"/> <path transform="matrix(1.4982 0 0 1.4982 83.735 -98.579)" d="m-174.67 225.99c3.2953-1.9999 9.886-2.0002 13.181-5.4e-4 3.2954 1.9996 3.2954 5.9992 0 7.9992-3.2953 1.9999-9.886 2.0002-13.181 5.4e-4 -3.2954-1.9996-3.2954-5.9992 0-7.9992z" fill="url(#f)" stroke-width="3.9996" style="-inkscape-stroke:none;paint-order:stroke fill markers"/> <path d="m-168.08 225.49c-0.30893 1e-5 -0.61845 8e-3 -0.92578 0.0234-0.30733 0.0156-0.61156 0.0391-0.91406 0.0703-0.3025 0.0313-0.60203 0.0703-0.89649 0.11719-0.29445 0.0469-0.58399 0.10155-0.86718 0.16406-0.2832 0.0625-0.56137 0.13281-0.83008 0.21094-0.26871 0.0781-0.52829 0.16406-0.7793 0.25781-0.25101 0.0937-0.49257 0.19531-0.72265 0.30469-0.11505 0.0547-0.22673 0.11133-0.33594 0.16992-0.10922 0.0586-0.21538 0.11914-0.31836 0.18164s-0.20424 0.12708-0.30078 0.19336c-0.0965 0.0663-0.18919 0.1333-0.2793 0.20312-0.0901 0.0698-0.1761 0.14173-0.25977 0.21485-0.0837 0.0731-0.16495 0.14844-0.24218 0.22461-0.0772 0.0762-0.15186 0.15345-0.22266 0.23242-0.0708 0.079-0.13876 0.1587-0.20312 0.24023-0.0644 0.0815-0.12373 0.16419-0.18164 0.24805-0.0579 0.0839-0.11453 0.16993-0.16602 0.25586-0.0515 0.0859-0.0995 0.172-0.14453 0.25977-0.0451 0.0878-0.0864 0.17627-0.125 0.26562-0.0386 0.0893 0.9267 0.17884 0.89453 0.26953-0.0322 0.0907-1.0622 0.18165-1.0879 0.27344-0.0258 0.0918-0.0471 0.1847-0.0664 0.27734-0.0193 0.0926-0.0359 0.18605-0.0488 0.2793-0.0129 0.0932 0.9771-0.81432 0.9707-0.7207-6e-3 0.0936-1.01 0.18751-1.01 0.28125v16c0 0.0937 3e-3 0.18763 0.01 0.28125 6e-3 0.0936 0.0164 0.188 0.0293 0.28125 0.0129 0.0932 0.0295 0.18665 0.0488 0.27929 0.0193 0.0926 0.0407 0.18361 0.0664 0.27539 0.0257 0.0918 0.0557 0.18471 0.0879 0.27539 0.0322 0.0907 0.0669 0.18019 0.10547 0.26954 0.0386 0.0893 0.0799 0.17786 0.125 0.26562 0.0451 0.0878 0.093 0.17384 0.14453 0.25977 0.0515 0.0859 0.10809 0.172 0.16602 0.25586 0.0579 0.0839 0.11727 0.16651 0.18164 0.24804 0.0644 0.0815 0.13232 0.16127 0.20312 0.24024 0.0708 0.079 0.14542 0.15626 0.22266 0.23242 0.0772 0.0762 0.15851 0.1515 0.24218 0.22461 0.0837 0.0731 0.16966 0.14503 0.25977 0.21484 0.0901 0.0698 0.18275 0.13685 0.2793 0.20313 0.0965 0.0663 0.1978 0.13087 0.30078 0.19336 0.10298 0.0625 0.20914 0.12305 0.31836 0.18164 0.10921 0.0586 0.22089 0.11524 0.33594 0.16992 0.23008 0.10935 0.47164 0.21096 0.72265 0.30469 0.25101 0.0937 0.51059 0.1797 0.7793 0.25781 0.26871 0.0781 0.54688 0.14845 0.83008 0.21094 0.28319 0.0625 0.57273 0.1172 0.86718 0.16406 0.29446 0.0469 0.59399 0.086 0.89649 0.11719 0.3025 0.0312 0.60673 0.0547 0.91406 0.0703s0.61684 0.0235 0.92578 0.0234v-15z" fill="url(#b)" stroke-width="3.9996" style="paint-order:stroke fill markers"/> <path d="m-168.14 227.83v20.967c0.0209 0 0.0416-2e-3 0.0625-2e-3v2.6992c0.30894-2e-5 0.61845-8e-3 0.92578-0.0234 0.30733-0.0156 0.61156-0.039 0.91407-0.0703 0.3025-0.0313 0.60202-0.0703 0.89648-0.11719 0.29446-0.0469 0.58399-0.10156 0.86719-0.16406 0.28319-0.0625 0.56136-0.13281 0.83008-0.21094 0.13435-0.0391 0.26635-0.0801 0.39648-0.12305 0.13013-0.043 0.25731-0.0879 0.38281-0.13476 0.12551-0.0469 0.24867-0.0957 0.36914-0.14649 0.12048-0.0508 0.23847-0.10351 0.35352-0.1582 0.11505-0.0547 0.22672-0.11133 0.33594-0.16992 0.10921-0.0586 0.21538-0.11915 0.31836-0.18164 0.10298-0.0625 0.20423-0.12708 0.30078-0.19336 0.0965-0.0663 0.18919-0.13526 0.27929-0.20508 0.0901-0.0698 0.1761-0.13978 0.25977-0.21289 0.0837-0.0731 0.16495-0.14844 0.24219-0.22461 0.0772-0.0762 0.15185-0.15345 0.22265-0.23242 0.0708-0.079 0.13877-0.16065 0.20313-0.24219 0.0644-0.0815 0.12371-0.16419 0.18164-0.24805 0.0579-0.0838 0.11257-0.16797 0.16406-0.2539 0.0515-0.0859 0.10143-0.17201 0.14649-0.25977 0.045-0.0878 0.0864-0.17823 0.125-0.26758 0.0386-0.0893 0.0733-0.17884 0.10546-0.26953 0.0322-0.0907 0.0622-0.18165 0.0879-0.27344 0.0257-0.0918 0.0471-0.1847 0.0664-0.27734 0.0193-0.0926 0.036-0.18409 0.0488-0.27734 0.0129-0.0933 0.0229-0.18763 0.0293-0.28125 6e-3 -0.0936 0.01-0.18751 0.01-0.28125 0-0.0918-3e-3 -0.18372-0.01-0.27539-1.5e-4 -2e-3 1.4e-4 -4e-3 0-6e-3 7e-3 -0.11954 0.01-1.1166 0.01-1.1875v-12.426c0-0.0728-4e-3 -2.146-0.01-2.2188s-0.0164-0.1444-0.0293-0.2168-0.0295-0.1448-0.0488-0.2168c-0.0193-0.0719-0.0406-0.14354-0.0664-0.21484-0.0257-0.0713-0.1182-0.14249-0.1504-0.21289s-0.0669 1.8604-0.10546 1.791c-0.0386-0.0694-0.0799-0.13883-0.125-0.20703-0.045-0.0682-0.093-0.13447-0.14454-0.20117-0.0515-0.0667-0.10811-0.13412-0.16601-0.19922s-0.11724-0.13006-0.18164-0.19336-0.13233-0.12425-0.20313-0.18555-0.14545-0.12244-0.22265-0.18164-0.15849-0.11702-0.24219-0.17382-0.16967-0.11182-0.25977-0.16602-0.18279-0.1067-0.27929-0.1582-0.1978-0.10179-0.30078-0.15039-0.20914-0.0951-0.31836-0.14063c-0.10921-0.0455-0.22089-0.0903-0.33594-0.13281-0.23009-0.085-0.47165-0.16363-0.72266-0.23633-0.25101-0.0728-0.51058-0.13852-0.77929-0.19922s-0.54688-0.11546-0.83008-0.16406c-0.28319-0.0485-0.57274-0.0925-0.86719-0.12891-0.29446-0.0364-0.59398-0.0655-0.89648-0.0898-0.3025-0.0242-0.60674-0.0426-0.91407-0.0547-0.30733-0.0122-0.61685-0.0176-0.92578-0.0176z" fill="url(#e)" stroke-width="3.5248" style="paint-order:stroke fill markers"/> <path d="m-168.08 234.99-0.82422-0.5v16.979c0.27402 0.0124 0.54917 0.0216 0.82422 0.0215v-15z" fill="url(#a)" stroke-width="2" style="paint-order:stroke fill markers"/> <path d="m-171.37 251.17v-17.141l-0.82422-0.54102v17.492c0.17096 0.0448 0.33972 0.092 0.51563 0.13086 0.10078 0.0222 0.20626 0.0383 0.30859 0.0586z" fill="url(#a)" stroke-width="2.0817" style="paint-order:stroke fill markers"/> <path d="m-174.67 249.99v-16.957l-0.82422-0.54102v16.9c0.0788 0.0685 0.15958 0.13566 0.24414 0.20117 0.0901 0.0698 0.18275 0.13685 0.2793 0.20313 0.0965 0.0663 0.1978 0.13087 0.30078 0.19336z" fill="url(#a)" stroke-width="2.0817" style="paint-order:stroke fill markers"/> <path d="m-164.78 251.18v-16.688l-0.82422-0.5v17.324c0.0875-0.0124 0.17704-0.0214 0.26367-0.0352 0.14723-0.0234 0.29291-0.0488 0.4375-0.0762 0.0414-8e-3 0.0819-0.0172 0.12305-0.0254z" fill="url(#a)" stroke-width="2" style="paint-order:stroke fill markers"/> <path d="m-161.49 249.99v-16.498l-0.82422-0.5v17.426c0.0558-0.0251 0.11342-0.0483 0.16797-0.0742 0.11505-0.0547 0.22672-0.11133 0.33594-0.16992 0.10921-0.0586 0.21538-0.11915 0.31836-0.18164z" fill="url(#a)" stroke-width="2" style="paint-order:stroke fill markers"/> <path d="m-159.84 230.23v18.258c0.0125-0.0178 0.0267-0.0348 0.0391-0.0527 0.0579-0.0838 0.11257-0.16797 0.16406-0.2539 0.0515-0.0859 0.10143-0.17201 0.14649-0.25977 0.045-0.0878 0.0864-0.17823 0.125-0.26758 0.0386-0.0893 0.0733-0.17884 0.10546-0.26953 0.0322-0.0907 0.0622-0.18165 0.0879-0.27344 0.0257-0.0918 0.0471-0.1847 0.0664-0.27734 0.0193-0.0926 0.036-0.18409 0.0488-0.27734 0.0129-0.0933 0.0229-0.18763 0.0293-0.28125 6e-3 -0.0936 0.01-0.18751 0.01-0.28125 0-0.0918-3e-3 -0.18372-0.01-0.27539-1.5e-4 -2e-3 1.4e-4 -4e-3 0-6e-3 7e-3 -0.11954 0.01-1.1166 0.01-1.1875v-12.426c0-0.0674-5e-3 -1.7292-0.01-2.0527l-0.33985-0.26758c-2e-3 0.0488-4e-3 0.0854-6e-3 0.13477-9e-3 0.23262-0.0182 0.46656-0.0273 0.63672-5e-3 0.0851-9e-3 0.1532-0.0137 0.19922-5e-3 0.046-9e-3 0.0692-0.0137 0.0605-0.0386-0.0694-0.0799-0.13883-0.125-0.20703-0.045-0.0682-0.093-0.13447-0.14454-0.20117-0.0443-0.0575-0.0931-0.11532-0.14257-0.17188z" fill="url(#a)" stroke-width="2.2667" style="paint-order:stroke fill markers"/> <path d="m-174.67 225.99c3.2953-1.9999 9.886-2.0002 13.181-5.4e-4 3.2954 1.9996 3.2954 5.9992 0 7.9992-3.2953 1.9999-9.886 2.0002-13.181 5.4e-4 -3.2954-1.9996-3.2954-5.9992 0-7.9992z" fill="url(#f)" stroke-width="3.9996" style="-inkscape-stroke:none;paint-order:stroke fill markers"/> </g> <g transform="translate(29.639 54.016)"> <g transform="translate(280.24 -33.997)"> <path d="m-168.08 241.75c-0.23142 0-0.46224 2e-3 -0.69336 8e-3s-0.46314 0.0156-0.69336 0.0273c-0.23021 0.0117-0.45879 0.0254-0.6875 0.043s-0.45699 0.0391-0.68359 0.0625-0.45189 0.0489-0.67578 0.0781c-0.22389 0.0293-0.44544 0.0625-0.66602 0.0976-0.22057 0.0351-0.43959 0.0723-0.65625 0.11328-0.21665 0.041-0.43239 0.084-0.64453 0.13086-0.21214 0.0468-0.4219 0.0977-0.6289 0.15039-0.20702 0.0527-0.41004 0.10749-0.61133 0.16602-0.20129 0.0585-0.40075 0.12117-0.59571 0.18555-0.19496 0.0644-0.38619 0.13094-0.57421 0.20117-0.18804 0.0702-0.37224 0.14267-0.55274 0.21875-0.1805 0.0761-0.35693 0.15635-0.5293 0.23828-0.17236 0.0819-0.34028 0.16612-0.5039 0.2539-0.16363 0.0878-0.32424 0.17786-0.47852 0.27149-0.15428 0.0936-0.30262 0.19171-0.44726 0.29101s-0.28493 0.20009-0.41993 0.30469c-0.13499 0.10461-0.26527 0.21273-0.39062 0.32227-0.0284 0.0248-0.0541 0.0511-0.082 0.0762h-2.3594v5.0606c1e-3 0.12018 3e-3 0.23934 0.0117 0.35937 0.01 0.14026 0.0237 0.28022 0.043 0.41992 0.0193 0.13971 0.0433 0.27918 0.0723 0.41797 0.0289 0.13879 0.063 0.27655 0.10156 0.41406 0.0386 0.13752 0.0827 0.27429 0.13086 0.41016 0.0482 0.13587 0.10035 0.2724 0.1582 0.40625 0.0579 0.13386 0.12 0.26501 0.1875 0.39649 0.0675 0.13147 0.14161 0.26189 0.21875 0.39062 0.0449 0.075 0.0944 0.14872 0.14258 0.22266 0.0346 0.053 0.0653 0.10768 0.10156 0.16015 0.0868 0.12563 0.17897 0.24895 0.27539 0.3711 0.0964 0.12215 0.19862 0.24302 0.30469 0.36132 0.10607 0.11831 0.21632 0.23356 0.33203 0.34766s0.23598 0.22641 0.36133 0.33594 0.25563 0.21767 0.39062 0.32226c0.135 0.1046 0.27529 0.2054 0.41993 0.30469 0.14464 0.0993 0.29298 0.19544 0.44726 0.28906 0.15428 0.0936 0.31489 0.18567 0.47852 0.27344 0.16362 0.0878 0.33154 0.17199 0.5039 0.25391 0.17236 0.0819 0.3488 0.16026 0.5293 0.23633 0.1805 0.0761 0.3647 0.15049 0.55274 0.2207 0.18802 0.0702 0.37925 0.13681 0.57421 0.20117 0.19496 0.0644 0.39442 0.12509 0.59571 0.18359s0.40431 0.11532 0.61133 0.16797c0.207 0.0527 0.41676 0.10164 0.6289 0.14844s0.42788 0.0919 0.64453 0.13281c0.21666 0.041 0.43568 0.0782 0.65625 0.11328 0.22058 0.0351 0.44213 0.0665 0.66602 0.0957s0.44918 0.0567 0.67578 0.0801 0.45488 0.043 0.68359 0.0605c0.22871 0.0176 0.45729 0.0332 0.6875 0.0449 0.23022 0.0117 0.46224 0.0196 0.69336 0.0254 0.23112 6e-3 0.46194 0.01 0.69336 0.01v-16.24h3.5703c-0.0458-6e-3 -0.0908-0.0135-0.13671-0.0195-0.22389-0.0293-0.44918-0.0547-0.67579-0.0781-0.2266-0.0234-0.45488-0.045-0.68359-0.0625s-0.45728-0.0313-0.6875-0.043-0.46224-0.0215-0.69336-0.0273c-0.23112-6e-3 -0.46194-8e-3 -0.69336-8e-3z" fill="url(#b)" stroke-width="1.8612" style="paint-order:stroke fill markers"/> <path d="m-164.51 241.99h-3.5703v16.24c0.23142-1e-5 0.46224-4e-3 0.69336-0.01s0.46314-0.0137 0.69336-0.0254 0.45879-0.0274 0.6875-0.0449c0.22871-0.0176 0.45699-0.0371 0.68359-0.0605s0.4519-0.0508 0.67579-0.0801c0.22388-0.0293 0.44544-0.0606 0.66601-0.0957 0.22058-0.0351 0.43959-0.0743 0.65625-0.11523 0.21666-0.041 0.4324-0.084 0.64453-0.13086 0.21214-0.0468 0.42189-0.0958 0.62891-0.14844 0.20701-0.0527 0.41004-0.10944 0.61133-0.16797 0.20129-0.0585 0.40074-0.11921 0.5957-0.18359 0.19496-0.0644 0.38619-0.1329 0.57422-0.20312 0.18803-0.0702 0.37224-0.14267 0.55273-0.21875 0.1805-0.0761 0.35694-0.1544 0.5293-0.23633 0.17236-0.0819 0.34028-0.16808 0.50391-0.25586 0.16362-0.0878 0.32423-0.17785 0.47851-0.27149 0.15428-0.0936 0.30263-0.18976 0.44727-0.28906s0.28492-0.20204 0.41992-0.30664 0.26527-0.21077 0.39062-0.32031c0.12536-0.10954 0.24562-0.22183 0.36133-0.33594s0.22597-0.23129 0.33203-0.34961c0.10607-0.11832 0.20827-0.23722 0.30469-0.35937 0.0964-0.12216 0.18666-0.24742 0.27344-0.37305 0.036-0.0521 0.0672-0.10556 0.10156-0.1582 0.0485-0.0743 0.0994-0.14729 0.14453-0.22266 0.0771-0.12874 0.1493-0.25914 0.2168-0.39062 0.0675-0.13149 0.1316-0.26458 0.18945-0.39844 0.0579-0.13386 0.10999-0.26843 0.15821-0.4043 0.0482-0.13587 0.0923-0.27264 0.13086-0.41016 0.0386-0.13751 0.0726-0.27526 0.10156-0.41406 0.0289-0.13879 0.053-0.27826 0.0723-0.41797s0.0333-0.27966 0.043-0.41992c7e-3 -0.1 8e-3 -0.20066 0.01-0.30078v-5.1191h-2.3555c-0.0286-0.0257-0.0548-0.0527-0.084-0.0781-0.12535-0.10953-0.25562-0.21572-0.39062-0.32031s-0.27528-0.20735-0.41992-0.30664c-0.14464-0.0993-0.29299-0.19544-0.44727-0.28906-0.15428-0.0936-0.31489-0.18372-0.47851-0.27149-0.16363-0.0878-0.33155-0.17394-0.50391-0.25585-0.17236-0.0819-0.3488-0.16027-0.5293-0.23633-0.18049-0.0761-0.3647-0.14854-0.55273-0.21875-0.18803-0.0702-0.37926-0.13877-0.57422-0.20313-0.19496-0.0644-0.39441-0.12508-0.5957-0.18359-0.20129-0.0585-0.40432-0.11336-0.61133-0.16602-0.20702-0.0526-0.41677-0.10358-0.62891-0.15039-0.21213-0.0468-0.42787-0.0899-0.64453-0.13086-0.21666-0.041-0.43567-0.0801-0.65625-0.11523-0.1753-0.0279-0.35208-0.0522-0.5293-0.0762z" fill="url(#e)" stroke-width="2" style="paint-order:stroke fill markers"/> <path transform="matrix(1.4982 0 0 1.4982 83.735 -98.579)" d="m-174.67 225.99c3.2953-1.9999 9.886-2.0002 13.181-5.4e-4 3.2954 1.9996 3.2954 5.9992 0 7.9992-3.2953 1.9999-9.886 2.0002-13.181 5.4e-4 -3.2954-1.9996-3.2954-5.9992 0-7.9992z" fill="url(#f)" stroke-width="3.9996" style="-inkscape-stroke:none;paint-order:stroke fill markers"/> </g> <g transform="matrix(2.0631 0 0 2.5732 -397.75 -402.77)"> <path d="m244.36 235.99c1.6478-1.0001 3.9741-1.0002 5.6219-2.7e-4s2.1326 2.9999 0.48472 4-4.9435 1.0002-6.5914 2.7e-4 -1.1631-2.9999 0.48472-4z" fill="url(#h)" stroke-width="2" style="-inkscape-stroke:none;paint-order:stroke fill markers"/> <path d="m244.86 236.32c0.45844-0.27823 1.3753-0.27826 1.8338-7e-5 0.45845 0.27819 0.45845 0.83461 0 1.1128-0.45844 0.27823-1.3753 0.27826-1.8338 7e-5 -0.45845-0.27819-0.45845-0.83461 0-1.1128z" fill="url(#c)" stroke-width=".55642" style="-inkscape-stroke:none;paint-order:stroke fill markers"/> <path d="m251.44 237.87a6.164 4.942 0 0 1-0.46105 0.49413 6.164 4.942 0 0 1-0.62199 0.49868 6.164 4.942 0 0 1-0.70435 0.42201 6.164 4.942 0 0 1-0.77157 0.33853 6.164 4.942 0 0 1-0.82458 0.24592 6.164 4.942 0 0 1-0.85962 0.15029 6.164 4.942 0 0 1-0.87665 0.0501 6.164 4.942 0 0 1-0.8776-0.0501 6.164 4.942 0 0 1-0.85867-0.15029 6.164 4.942 0 0 1-0.82458-0.24592 6.164 4.942 0 0 1-0.55572-0.24365c0.0178 0.0246 0.0348 0.0495 0.054 0.0736 0.0314 0.0395 0.065 0.078 0.10035 0.11613 0.0353 0.0381 0.0725 0.0758 0.11172 0.11233 0.0393 0.0366 0.0807 0.0721 0.12401 0.10703 0.0433 0.0349 0.088 0.0693 0.13538 0.10247 0.0474 0.0331 0.0971 0.0651 0.14864 0.0964 0.0515 0.0312 0.10443 0.0618 0.15904 0.0911 0.0546 0.0293 0.11099 0.0577 0.16852 0.085 0.0575 0.0273 0.11679 0.0536 0.17703 0.0789 0.0602 0.0254 0.12185 0.0494 0.18461 0.0729 0.0628 0.0234 0.12617 0.0461 0.19124 0.0676 0.0651 0.0215 0.13162 0.042 0.19881 0.0615 0.13437 0.0391 0.2721 0.0743 0.41371 0.1055s0.2873 0.0585 0.43454 0.082c0.14724 0.0234 0.29653 0.0428 0.44779 0.0584 0.15127 0.0156 0.30453 0.0279 0.45821 0.0357 0.15368 8e-3 0.30751 0.0114 0.462 0.0114 0.15448-1e-5 0.30926-4e-3 0.46294-0.0114 0.15368-8e-3 0.30694-0.02 0.4582-0.0357 0.15127-0.0156 0.30055-0.035 0.4478-0.0584 0.14724-0.0234 0.29198-0.0507 0.43359-0.082s0.28029-0.0664 0.41466-0.1055c0.0672-0.0195 0.13279-0.04 0.19786-0.0615 0.0651-0.0215 0.12943-0.0441 0.19218-0.0676 0.0628-0.0234 0.12437-0.0475 0.18461-0.0729 0.0602-0.0254 0.11951-0.0523 0.17704-0.0797 0.0575-0.0273 0.11295-0.0557 0.16757-0.085 0.0546-0.0293 0.10755-0.0591 0.15904-0.0903 0.0515-0.0312 0.10128-0.064 0.14864-0.0971 0.0474-0.0331 0.093-0.0668 0.13632-0.10171 0.0433-0.0349 0.0838-0.0705 0.12307-0.10703 0.0393-0.0366 0.0774-0.0742 0.11266-0.11233 0.0353-0.0381 0.068-0.0766 0.0994-0.11613 0.0314-0.0395 0.0614-0.0799 0.089-0.12069 0.0276-0.0408 0.0529-0.0818 0.0767-0.12372 0.0238-0.0419 0.0462-0.0845 0.0663-0.12751 0.0201-0.043 0.0376-0.0867 0.054-0.13056 0.0164-0.0439 0.0317-0.0882 0.0445-0.13283 0.0128-0.0447 0.0229-0.0897 0.0322-0.1351 9e-3 -0.0454 0.0169-0.0907 0.0227-0.13663 6e-3 -0.0459 0.01-0.0926 0.0123-0.1389 2e-3 -0.0463 3e-3 -0.0923 2e-3 -0.1389s-3e-3 -0.0936-8e-3 -0.14042c-4e-3 -0.0468-0.0104-0.0935-0.018-0.14042-6e-3 -0.0391-0.0142-0.0786-0.0227-0.11765z" fill="url(#p)" stroke-width="2" style="paint-order:stroke fill markers"/> </g> </g> <g transform="translate(-540.48 135.03)"> <g transform="matrix(2.2538 0 0 2.2538 -621.92 -211.65)"> <path d="m603.11 169.98c1.6478-1.0001 4.9435-1.0002 6.5914-2.7e-4s1.6478 2.9999 0 4-4.9435 1.0002-6.5914 2.7e-4 -1.6478-2.9999 0-4z" fill="#1d3557" stroke-width="2" style="-inkscape-stroke:none;paint-order:stroke fill markers"/> </g> <g transform="matrix(2.2538 0 0 2.2538 -621.94 -212.63)" stroke-width="2"> <path d="m603.11 169.98c1.6478-1.0001 4.9435-1.0002 6.5914-2.7e-4s1.6478 2.9999 0 4-4.9435 1.0002-6.5914 2.7e-4 -1.6478-2.9999 0-4z" fill="url(#c)" style="-inkscape-stroke:none;paint-order:stroke fill markers"/> </g> <g transform="matrix(1.7462 0 0 1.7462 -314.08 -125.33)"> <path d="m606.42 174.73v-5.4998h-0.0145c-0.15449 1e-5 -0.30827 3e-3 -0.46195 0.0112-0.15368 8e-3 -0.30733 0.0202-0.4586 0.0358-0.15126 0.0156-0.30016 0.0347-0.44741 0.0582-0.14724 0.0234-0.29237 0.0504-0.43399 0.0817-0.14161 0.0312-0.2806 0.0672-0.41497 0.10626-0.13437 0.0391-0.26485 0.0817-0.39036 0.12863-0.0628 0.0234-0.12432 0.0473-0.18456 0.0727-0.0602 0.0254-0.11808 0.0521-0.17561 0.0794-0.0575 0.0273-0.11428 0.0557-0.1689 0.085-0.0546 0.0293-0.10733 0.0594-0.15883 0.0906-0.0515 0.0313-0.1016 0.0642-0.14988 0.0973-0.0483 0.0331-0.0948 0.0669-0.13982 0.10178-0.0451 0.0349-0.089 0.0708-0.13086 0.10738-0.0418 0.0366-0.0822 0.0738-0.1208 0.11185-0.0386 0.0381-0.0753 0.0768-0.11074 0.11633-0.0354 0.0395-0.0696 0.08-0.10178 0.1208-0.0322 0.0408-0.0628 0.0822-0.0917 0.12416-0.029 0.0419-0.0559 0.0845-0.0816 0.12751-0.0258 0.043-0.0502 0.0859-0.0727 0.12975-0.0225 0.0439-0.0433 0.0884-0.0626 0.1331s-0.0365 0.09-0.0526 0.13534c-0.0161 0.0453-0.0308 0.0906-0.0436 0.13646-0.0129 0.0459-0.0239 0.0924-0.0336 0.1387-0.01 0.0463-0.0182 0.0921-0.0246 0.1387-6e-3 0.0466-0.0113 0.0941-0.0145 0.14093-3e-3 0.0468-4e-3 0.0929-4e-3 0.13982 0 0.0469 1e-3 0.0941 4e-3 0.14093 3e-3 0.0468 8e-3 0.0943 0.0145 0.14094 6e-3 0.0466 0.0149 0.0924 0.0246 0.13869 0.01 0.0463 0.0207 0.0928 0.0336 0.1387s0.0275 0.0911 0.0436 0.13646c0.0161 0.0453 0.0333 0.0907 0.0526 0.13534 0.0193 0.0447 0.0401 0.0892 0.0626 0.13311 0.0225 0.0439 0.047 0.0868 0.0727 0.12975 0.0257 0.043 0.0527 0.0856 0.0816 0.12751 0.029 0.0419 0.0595 0.0834 0.0917 0.12415 0.0322 0.0408 0.0664 0.0813 0.10178 0.12081 0.0354 0.0395 0.0721 0.0782 0.11074 0.11632 0.0386 0.0381 0.079 0.0753 0.1208 0.11185 0.0418 0.0366 0.0858 0.0725 0.13086 0.10738 0.0451 0.0349 0.0915 0.0687 0.13982 0.10179 0.0483 0.0331 0.0984 0.0661 0.14988 0.0973 0.0515 0.0312 0.10422 0.0613 0.15883 0.0906 0.0546 0.0293 0.11137 0.0577 0.1689 0.085 0.0575 0.0273 0.11536 0.0529 0.17561 0.0783 0.0602 0.0254 0.1218 0.0504 0.18456 0.0738 0.12551 0.0469 0.25599 0.0896 0.39036 0.12863 0.13437 0.0391 0.27336 0.0739 0.41497 0.10514 0.14162 0.0312 0.28675 0.0593 0.43399 0.0828 0.14725 0.0234 0.29615 0.0425 0.44741 0.0582 0.15127 0.0156 0.30492 0.0269 0.4586 0.0347 0.15368 8e-3 0.30746 0.0123 0.46195 0.0123 5e-3 0 0.01 1e-5 0.0145 0z" fill="url(#b)" stroke-width="2" style="paint-order:stroke fill markers"/> <path transform="matrix(.57269 0 0 .57269 179.87 71.773)" d="m744.82 179.77c0.26128-4.2e-4 0.52327-8e-3 0.7832-0.0215 0.26835-0.0137 0.53469-0.0333 0.79883-0.0606 0.26413-0.0273 0.52609-0.0606 0.7832-0.10156 0.25711-0.0409 0.51054-0.0899 0.75781-0.14453 0.24728-0.0546 0.48803-0.11538 0.72266-0.18359 0.23463-0.0682 0.46246-0.14275 0.68164-0.22461 0.10959-0.0409 0.21707-0.0846 0.32226-0.12891 0.1052-0.0443 0.20814-0.0909 0.3086-0.13867 0.10045-0.0478 0.1976-0.0973 0.29297-0.14844 0.0954-0.0512 0.18938-0.10363 0.27929-0.1582 0.0899-0.0546 0.17547-0.1101 0.25977-0.16797 0.0843-0.0579 0.16742-0.11677 0.24609-0.17774 0.0787-0.061 0.15351-0.12365 0.22657-0.1875 0.073-0.0638 0.14349-0.1288 0.21093-0.19531 0.0674-0.0665 0.13154-0.13417 0.19336-0.20312 0.0618-0.069 0.12154-0.13974 0.17774-0.21094s0.10957-0.14358 0.16015-0.2168c0.0506-0.0732 0.0976-0.14762 0.14258-0.22265 0.045-0.075 0.0876-0.14994 0.12695-0.22657 0.0393-0.0766 0.0757-0.1544 0.10938-0.23242 0.0337-0.078 0.0657-0.15714 0.0937-0.23633 0.0281-0.0792 0.0517-0.15813 0.0742-0.23828 0.0225-0.0801 0.0437-0.16129 0.0606-0.24219s0.0298-0.16271 0.041-0.24414c0.0112-0.0814 0.0198-0.16239 0.0254-0.24414 6e-3 -0.0817 0.01-0.16424 0.01-0.24609 0-0.0819-4e-3 -0.16435-0.01-0.24609-6e-3 -0.0817-0.0142-0.16272-0.0254-0.24414-0.0112-0.0814-0.0242-0.16325-0.041-0.24415-0.0169-0.0809-0.0381-0.16008-0.0606-0.24023-0.0225-0.0801-0.0461-0.16105-0.0742-0.24023-0.0281-0.0792-0.06-0.15637-0.0937-0.23438-0.0337-0.078-0.07-0.15579-0.10938-0.23242-0.0393-0.0766-0.082-0.15349-0.12695-0.22852-0.045-0.075-0.092-0.14944-0.14258-0.22265-0.0506-0.0732-0.10395-0.14366-0.16015-0.21485-0.0562-0.0712-0.11592-0.14198-0.17774-0.21093-0.0618-0.069-0.12592-0.13663-0.19336-0.20313-0.0674-0.0665-0.13788-0.13147-0.21093-0.19531-0.0731-0.0638-0.14789-0.12654-0.22657-0.1875-0.0787-0.061-0.16179-0.11987-0.24609-0.17774-0.0843-0.0579-0.16985-0.11535-0.25977-0.16992-0.0899-0.0546-0.18393-0.10705-0.27929-0.1582-0.0954-0.0512-0.19252-0.1007-0.29297-0.14844-0.10046-0.0477-0.2034-0.0943-0.3086-0.13867-0.10519-0.0443-0.21267-0.086-0.32226-0.12695-0.21918-0.0819-0.44701-0.15641-0.68164-0.22461s-0.47538-0.13099-0.72266-0.18555c-0.24727-0.0546-0.5007-0.10166-0.75781-0.14258-0.25711-0.0409-0.51907-0.0743-0.7832-0.10156-0.26414-0.0273-0.53048-0.0489-0.79883-0.0625-0.25993-0.0132-0.52192-0.0191-0.7832-0.0195z" fill="url(#a)" stroke-width="2" style="paint-order:stroke fill markers"/> <rect x="601.88" y="170.85" width="4.5678" height="1.2634" fill="url(#b)" stroke-width=".80177" style="-inkscape-stroke:none;paint-order:stroke fill markers"/> <rect x="606.45" y="170.85" width="4.4906" height="1.1605" fill="url(#a)" stroke-width="1.0371" style="-inkscape-stroke:none;paint-order:stroke fill markers"/> </g> <g transform="matrix(1.7462 0 0 1.7462 -314.08 -127.33)"> <path d="m606.42 169.23v5.4998c0.14964-2.4e-4 0.29967-5e-3 0.44853-0.0123 0.15368-8e-3 0.30621-0.019 0.45748-0.0347 0.15126-0.0156 0.30128-0.0347 0.44852-0.0582 0.14725-0.0234 0.29238-0.0515 0.43399-0.0828s0.27949-0.0661 0.41386-0.10514c0.13437-0.0391 0.26484-0.0817 0.39036-0.12863 0.12552-0.0469 0.24623-0.0986 0.36129-0.15324 0.0575-0.0274 0.11316-0.0557 0.16777-0.085 0.0546-0.0293 0.10846-0.0593 0.15995-0.0906 0.0515-0.0312 0.10049-0.0631 0.14877-0.0962 0.0483-0.0331 0.0959-0.0669 0.14093-0.10179 0.0451-0.0349 0.0879-0.0708 0.12975-0.10738 0.0418-0.0366 0.0822-0.0738 0.1208-0.11185 0.0386-0.0381 0.0753-0.0768 0.11074-0.11632 0.0354-0.0395 0.0696-0.08 0.10178-0.12081 0.0322-0.0408 0.0628-0.0822 0.0917-0.12415 0.029-0.0419 0.0559-0.0845 0.0816-0.12751 0.0258-0.043 0.0502-0.0859 0.0727-0.12975 0.0225-0.0439 0.0433-0.0884 0.0626-0.13311 0.0193-0.0447 0.0376-0.09 0.0537-0.13534 0.0161-0.0454 0.0296-0.0906 0.0425-0.13646 0.0129-0.0459 0.025-0.0924 0.0347-0.1387 0.01-0.0463 0.0171-0.0932 0.0235-0.13981 6e-3 -0.0466 0.0113-0.093 0.0145-0.13982 3e-3 -0.0468 6e-3 -0.0941 6e-3 -0.14093 0-0.0469-2e-3 -0.0941-6e-3 -0.14094-3e-3 -0.0468-8e-3 -0.0932-0.0145-0.13981-6e-3 -0.0466-0.0138-0.0935-0.0235-0.13982-0.01-0.0463-0.0218-0.0917-0.0347-0.13758-0.0129-0.0459-0.0264-0.0922-0.0425-0.13757-0.0161-0.0453-0.0344-0.0896-0.0537-0.13423-0.0193-0.0447-0.0401-0.0892-0.0626-0.1331s-0.047-0.0879-0.0727-0.13087c-0.0257-0.043-0.0527-0.0856-0.0816-0.12751-0.029-0.0419-0.0595-0.0823-0.0917-0.12304-0.0322-0.0408-0.0664-0.0813-0.10178-0.1208-0.0354-0.0395-0.0721-0.0782-0.11074-0.11633-0.0386-0.0381-0.079-0.0753-0.1208-0.11185-0.0418-0.0366-0.0847-0.0725-0.12975-0.10738-0.0451-0.0349-0.0927-0.0686-0.14093-0.10178-0.0483-0.0331-0.0973-0.0661-0.14877-0.0973-0.0515-0.0312-0.10533-0.0613-0.15995-0.0906-0.0546-0.0293-0.11025-0.0577-0.16777-0.085-0.11506-0.0547-0.23577-0.10525-0.36129-0.15212-0.12552-0.0469-0.25599-0.0896-0.39036-0.12863-0.13437-0.0391-0.27225-0.075-0.41386-0.10626-0.14161-0.0312-0.28674-0.0582-0.43399-0.0817-0.14724-0.0234-0.29726-0.0425-0.44852-0.0582-0.15127-0.0156-0.3038-0.028-0.45748-0.0358-0.14886-8e-3 -0.29889-0.011-0.44853-0.0112z" fill="url(#m)" stroke-width="2" style="paint-order:stroke fill markers"/> <path transform="matrix(.57269 0 0 .57269 179.87 72.918)" d="m744.82 168.17c-8e-3 -1e-5 -0.0169 0-0.0254 0-0.26975 1e-5 -0.53829 6e-3 -0.80664 0.0195-0.26835 0.0137-0.53664 0.0352-0.80078 0.0625-0.26413 0.0273-0.52414 0.0606-0.78125 0.10156-0.25711 0.0409-0.51053 0.088-0.75781 0.14258-0.24727 0.0546-0.48998 0.11733-0.72461 0.18555-0.23463 0.0682-0.46246 0.14275-0.68164 0.22461-0.21918 0.0819-0.42799 0.17012-0.62891 0.26562-0.10045 0.0478-0.19955 0.0973-0.29492 0.14844-0.0954 0.0512-0.18742 0.10363-0.27734 0.1582-0.0899 0.0546-0.17742 0.11205-0.26172 0.16992-0.0843 0.0579-0.16546 0.11677-0.24414 0.17774-0.0787 0.061-0.15546 0.12366-0.22852 0.1875-0.073 0.0638-0.14349 0.1288-0.21093 0.19531-0.0674 0.0665-0.13154 0.13417-0.19336 0.20313-0.0618 0.069-0.12154 0.13974-0.17774 0.21093-0.0562 0.0712-0.10957 0.14358-0.16015 0.2168-0.0506 0.0732-0.0976 0.14762-0.14258 0.22266-0.045 0.075-0.0876 0.14993-0.12696 0.22656-0.0393 0.0766-0.0756 0.15441-0.10937 0.23242-0.0337 0.078-0.0637 0.15714-0.0918 0.23633-0.0281 0.0792-0.0537 0.15813-0.0762 0.23828-0.0225 0.0802-0.0417 0.1613-0.0586 0.24219-0.0169 0.0809-0.0317 0.16076-0.043 0.24219-0.0112 0.0814-0.0198 0.16434-0.0254 0.24609-6e-3 0.0817-8e-3 0.16229-8e-3 0.24414 0 0.0819 2e-3 0.16435 8e-3 0.24609 6e-3 0.0817 0.0142 0.16467 0.0254 0.2461 0.0112 0.0814 0.0261 0.16129 0.043 0.24218 0.0169 0.0809 0.0361 0.16205 0.0586 0.24219 0.0225 0.0802 0.0481 0.1591 0.0762 0.23828 0.0281 0.0792 0.0581 0.15832 0.0918 0.23633 0.0337 0.078 0.07 0.1558 0.10937 0.23242 0.0393 0.0766 0.082 0.15154 0.12696 0.22657 0.045 0.075 0.092 0.14944 0.14258 0.22265 0.0506 0.0732 0.10395 0.14561 0.16015 0.2168 0.0562 0.0712 0.11592 0.14198 0.17774 0.21094 0.0618 0.069 0.12592 0.13662 0.19336 0.20312 0.0674 0.0665 0.13788 0.13148 0.21093 0.19531 0.0731 0.0638 0.14984 0.12655 0.22852 0.1875 0.0787 0.061 0.15984 0.11987 0.24414 0.17774 0.0843 0.0579 0.1718 0.11536 0.26172 0.16992 0.0899 0.0546 0.18198 0.10705 0.27734 0.1582 0.0954 0.0512 0.19447 0.1007 0.29492 0.14844 0.20092 0.0955 0.40973 0.18378 0.62891 0.26563 0.21918 0.0818 0.44701 0.15641 0.68164 0.22461s0.47734 0.12903 0.72461 0.18359c0.24728 0.0546 0.5007 0.10362 0.75781 0.14453 0.25711 0.0409 0.51712 0.0743 0.78125 0.10156 0.26414 0.0273 0.53243 0.0469 0.80078 0.0606 0.26835 0.0136 0.53689 0.0215 0.80664 0.0215 8e-3 0 0.0169 2e-5 0.0254 0z" fill="url(#l)" stroke-width="1.9365" style="paint-order:stroke fill markers"/> </g> <g transform="matrix(1.4962 0 0 1.4962 -162.48 -85.333)" stroke-width="2"> <path d="m603.11 169.98c1.6478-1.0001 4.9435-1.0002 6.5914-2.7e-4s1.6478 2.9999 0 4-4.9435 1.0002-6.5914 2.7e-4 -1.6478-2.9999 0-4z" fill="url(#c)" style="-inkscape-stroke:none;paint-order:stroke fill markers"/> </g> </g> <g transform="translate(-560.24 123.01)"> <g transform="matrix(2.2538 0 0 2.2538 -621.92 -211.65)"> <path d="m603.11 169.98c1.6478-1.0001 4.9435-1.0002 6.5914-2.7e-4s1.6478 2.9999 0 4-4.9435 1.0002-6.5914 2.7e-4 -1.6478-2.9999 0-4z" fill="#1d3557" stroke-width="2" style="-inkscape-stroke:none;paint-order:stroke fill markers"/> </g> <g transform="matrix(2.2538 0 0 2.2538 -621.94 -212.63)" stroke-width="2"> <path d="m603.11 169.98c1.6478-1.0001 4.9435-1.0002 6.5914-2.7e-4s1.6478 2.9999 0 4-4.9435 1.0002-6.5914 2.7e-4 -1.6478-2.9999 0-4z" fill="url(#c)" style="-inkscape-stroke:none;paint-order:stroke fill markers"/> </g> <g transform="matrix(1.7462 0 0 1.7462 -314.08 -125.33)"> <path d="m606.42 174.73v-5.4998h-0.0145c-0.15449 1e-5 -0.30827 3e-3 -0.46195 0.0112-0.15368 8e-3 -0.30733 0.0202-0.4586 0.0358-0.15126 0.0156-0.30016 0.0347-0.44741 0.0582-0.14724 0.0234-0.29237 0.0504-0.43399 0.0817-0.14161 0.0312-0.2806 0.0672-0.41497 0.10626-0.13437 0.0391-0.26485 0.0817-0.39036 0.12863-0.0628 0.0234-0.12432 0.0473-0.18456 0.0727-0.0602 0.0254-0.11808 0.0521-0.17561 0.0794-0.0575 0.0273-0.11428 0.0557-0.1689 0.085-0.0546 0.0293-0.10733 0.0594-0.15883 0.0906-0.0515 0.0313-0.1016 0.0642-0.14988 0.0973-0.0483 0.0331-0.0948 0.0669-0.13982 0.10178-0.0451 0.0349-0.089 0.0708-0.13086 0.10738-0.0418 0.0366-0.0822 0.0738-0.1208 0.11185-0.0386 0.0381-0.0753 0.0768-0.11074 0.11633-0.0354 0.0395-0.0696 0.08-0.10178 0.1208-0.0322 0.0408-0.0628 0.0822-0.0917 0.12416-0.029 0.0419-0.0559 0.0845-0.0816 0.12751-0.0258 0.043-0.0502 0.0859-0.0727 0.12975-0.0225 0.0439-0.0433 0.0884-0.0626 0.1331s-0.0365 0.09-0.0526 0.13534c-0.0161 0.0453-0.0308 0.0906-0.0436 0.13646-0.0129 0.0459-0.0239 0.0924-0.0336 0.1387-0.01 0.0463-0.0182 0.0921-0.0246 0.1387-6e-3 0.0466-0.0113 0.0941-0.0145 0.14093-3e-3 0.0468-4e-3 0.0929-4e-3 0.13982 0 0.0469 1e-3 0.0941 4e-3 0.14093 3e-3 0.0468 8e-3 0.0943 0.0145 0.14094 6e-3 0.0466 0.0149 0.0924 0.0246 0.13869 0.01 0.0463 0.0207 0.0928 0.0336 0.1387s0.0275 0.0911 0.0436 0.13646c0.0161 0.0453 0.0333 0.0907 0.0526 0.13534 0.0193 0.0447 0.0401 0.0892 0.0626 0.13311 0.0225 0.0439 0.047 0.0868 0.0727 0.12975 0.0257 0.043 0.0527 0.0856 0.0816 0.12751 0.029 0.0419 0.0595 0.0834 0.0917 0.12415 0.0322 0.0408 0.0664 0.0813 0.10178 0.12081 0.0354 0.0395 0.0721 0.0782 0.11074 0.11632 0.0386 0.0381 0.079 0.0753 0.1208 0.11185 0.0418 0.0366 0.0858 0.0725 0.13086 0.10738 0.0451 0.0349 0.0915 0.0687 0.13982 0.10179 0.0483 0.0331 0.0984 0.0661 0.14988 0.0973 0.0515 0.0312 0.10422 0.0613 0.15883 0.0906 0.0546 0.0293 0.11137 0.0577 0.1689 0.085 0.0575 0.0273 0.11536 0.0529 0.17561 0.0783 0.0602 0.0254 0.1218 0.0504 0.18456 0.0738 0.12551 0.0469 0.25599 0.0896 0.39036 0.12863 0.13437 0.0391 0.27336 0.0739 0.41497 0.10514 0.14162 0.0312 0.28675 0.0593 0.43399 0.0828 0.14725 0.0234 0.29615 0.0425 0.44741 0.0582 0.15127 0.0156 0.30492 0.0269 0.4586 0.0347 0.15368 8e-3 0.30746 0.0123 0.46195 0.0123 5e-3 0 0.01 1e-5 0.0145 0z" fill="url(#b)" stroke-width="2" style="paint-order:stroke fill markers"/> <path transform="matrix(.57269 0 0 .57269 179.87 71.773)" d="m744.82 179.77c0.26128-4.2e-4 0.52327-8e-3 0.7832-0.0215 0.26835-0.0137 0.53469-0.0333 0.79883-0.0606 0.26413-0.0273 0.52609-0.0606 0.7832-0.10156 0.25711-0.0409 0.51054-0.0899 0.75781-0.14453 0.24728-0.0546 0.48803-0.11538 0.72266-0.18359 0.23463-0.0682 0.46246-0.14275 0.68164-0.22461 0.10959-0.0409 0.21707-0.0846 0.32226-0.12891 0.1052-0.0443 0.20814-0.0909 0.3086-0.13867 0.10045-0.0478 0.1976-0.0973 0.29297-0.14844 0.0954-0.0512 0.18938-0.10363 0.27929-0.1582 0.0899-0.0546 0.17547-0.1101 0.25977-0.16797 0.0843-0.0579 0.16742-0.11677 0.24609-0.17774 0.0787-0.061 0.15351-0.12365 0.22657-0.1875 0.073-0.0638 0.14349-0.1288 0.21093-0.19531 0.0674-0.0665 0.13154-0.13417 0.19336-0.20312 0.0618-0.069 0.12154-0.13974 0.17774-0.21094s0.10957-0.14358 0.16015-0.2168c0.0506-0.0732 0.0976-0.14762 0.14258-0.22265 0.045-0.075 0.0876-0.14994 0.12695-0.22657 0.0393-0.0766 0.0757-0.1544 0.10938-0.23242 0.0337-0.078 0.0657-0.15714 0.0937-0.23633 0.0281-0.0792 0.0517-0.15813 0.0742-0.23828 0.0225-0.0801 0.0437-0.16129 0.0606-0.24219s0.0298-0.16271 0.041-0.24414c0.0112-0.0814 0.0198-0.16239 0.0254-0.24414 6e-3 -0.0817 0.01-0.16424 0.01-0.24609 0-0.0819-4e-3 -0.16435-0.01-0.24609-6e-3 -0.0817-0.0142-0.16272-0.0254-0.24414-0.0112-0.0814-0.0242-0.16325-0.041-0.24415-0.0169-0.0809-0.0381-0.16008-0.0606-0.24023-0.0225-0.0801-0.0461-0.16105-0.0742-0.24023-0.0281-0.0792-0.06-0.15637-0.0937-0.23438-0.0337-0.078-0.07-0.15579-0.10938-0.23242-0.0393-0.0766-0.082-0.15349-0.12695-0.22852-0.045-0.075-0.092-0.14944-0.14258-0.22265-0.0506-0.0732-0.10395-0.14366-0.16015-0.21485-0.0562-0.0712-0.11592-0.14198-0.17774-0.21093-0.0618-0.069-0.12592-0.13663-0.19336-0.20313-0.0674-0.0665-0.13788-0.13147-0.21093-0.19531-0.0731-0.0638-0.14789-0.12654-0.22657-0.1875-0.0787-0.061-0.16179-0.11987-0.24609-0.17774-0.0843-0.0579-0.16985-0.11535-0.25977-0.16992-0.0899-0.0546-0.18393-0.10705-0.27929-0.1582-0.0954-0.0512-0.19252-0.1007-0.29297-0.14844-0.10046-0.0477-0.2034-0.0943-0.3086-0.13867-0.10519-0.0443-0.21267-0.086-0.32226-0.12695-0.21918-0.0819-0.44701-0.15641-0.68164-0.22461s-0.47538-0.13099-0.72266-0.18555c-0.24727-0.0546-0.5007-0.10166-0.75781-0.14258-0.25711-0.0409-0.51907-0.0743-0.7832-0.10156-0.26414-0.0273-0.53048-0.0489-0.79883-0.0625-0.25993-0.0132-0.52192-0.0191-0.7832-0.0195z" fill="url(#a)" stroke-width="2" style="paint-order:stroke fill markers"/> <rect x="601.88" y="170.85" width="4.5678" height="1.2634" fill="url(#b)" stroke-width=".80177" style="-inkscape-stroke:none;paint-order:stroke fill markers"/> <rect x="606.45" y="170.85" width="4.4906" height="1.1605" fill="url(#a)" stroke-width="1.0371" style="-inkscape-stroke:none;paint-order:stroke fill markers"/> </g> <g transform="matrix(1.7462 0 0 1.7462 -314.08 -127.33)"> <path d="m606.42 169.23v5.4998c0.14964-2.4e-4 0.29967-5e-3 0.44853-0.0123 0.15368-8e-3 0.30621-0.019 0.45748-0.0347 0.15126-0.0156 0.30128-0.0347 0.44852-0.0582 0.14725-0.0234 0.29238-0.0515 0.43399-0.0828s0.27949-0.0661 0.41386-0.10514c0.13437-0.0391 0.26484-0.0817 0.39036-0.12863 0.12552-0.0469 0.24623-0.0986 0.36129-0.15324 0.0575-0.0274 0.11316-0.0557 0.16777-0.085 0.0546-0.0293 0.10846-0.0593 0.15995-0.0906 0.0515-0.0312 0.10049-0.0631 0.14877-0.0962 0.0483-0.0331 0.0959-0.0669 0.14093-0.10179 0.0451-0.0349 0.0879-0.0708 0.12975-0.10738 0.0418-0.0366 0.0822-0.0738 0.1208-0.11185 0.0386-0.0381 0.0753-0.0768 0.11074-0.11632 0.0354-0.0395 0.0696-0.08 0.10178-0.12081 0.0322-0.0408 0.0628-0.0822 0.0917-0.12415 0.029-0.0419 0.0559-0.0845 0.0816-0.12751 0.0258-0.043 0.0502-0.0859 0.0727-0.12975 0.0225-0.0439 0.0433-0.0884 0.0626-0.13311 0.0193-0.0447 0.0376-0.09 0.0537-0.13534 0.0161-0.0454 0.0296-0.0906 0.0425-0.13646 0.0129-0.0459 0.025-0.0924 0.0347-0.1387 0.01-0.0463 0.0171-0.0932 0.0235-0.13981 6e-3 -0.0466 0.0113-0.093 0.0145-0.13982 3e-3 -0.0468 6e-3 -0.0941 6e-3 -0.14093 0-0.0469-2e-3 -0.0941-6e-3 -0.14094-3e-3 -0.0468-8e-3 -0.0932-0.0145-0.13981-6e-3 -0.0466-0.0138-0.0935-0.0235-0.13982-0.01-0.0463-0.0218-0.0917-0.0347-0.13758-0.0129-0.0459-0.0264-0.0922-0.0425-0.13757-0.0161-0.0453-0.0344-0.0896-0.0537-0.13423-0.0193-0.0447-0.0401-0.0892-0.0626-0.1331s-0.047-0.0879-0.0727-0.13087c-0.0257-0.043-0.0527-0.0856-0.0816-0.12751-0.029-0.0419-0.0595-0.0823-0.0917-0.12304-0.0322-0.0408-0.0664-0.0813-0.10178-0.1208-0.0354-0.0395-0.0721-0.0782-0.11074-0.11633-0.0386-0.0381-0.079-0.0753-0.1208-0.11185-0.0418-0.0366-0.0847-0.0725-0.12975-0.10738-0.0451-0.0349-0.0927-0.0686-0.14093-0.10178-0.0483-0.0331-0.0973-0.0661-0.14877-0.0973-0.0515-0.0312-0.10533-0.0613-0.15995-0.0906-0.0546-0.0293-0.11025-0.0577-0.16777-0.085-0.11506-0.0547-0.23577-0.10525-0.36129-0.15212-0.12552-0.0469-0.25599-0.0896-0.39036-0.12863-0.13437-0.0391-0.27225-0.075-0.41386-0.10626-0.14161-0.0312-0.28674-0.0582-0.43399-0.0817-0.14724-0.0234-0.29726-0.0425-0.44852-0.0582-0.15127-0.0156-0.3038-0.028-0.45748-0.0358-0.14886-8e-3 -0.29889-0.011-0.44853-0.0112z" fill="url(#m)" stroke-width="2" style="paint-order:stroke fill markers"/> <path transform="matrix(.57269 0 0 .57269 179.87 72.918)" d="m744.82 168.17c-8e-3 -1e-5 -0.0169 0-0.0254 0-0.26975 1e-5 -0.53829 6e-3 -0.80664 0.0195-0.26835 0.0137-0.53664 0.0352-0.80078 0.0625-0.26413 0.0273-0.52414 0.0606-0.78125 0.10156-0.25711 0.0409-0.51053 0.088-0.75781 0.14258-0.24727 0.0546-0.48998 0.11733-0.72461 0.18555-0.23463 0.0682-0.46246 0.14275-0.68164 0.22461-0.21918 0.0819-0.42799 0.17012-0.62891 0.26562-0.10045 0.0478-0.19955 0.0973-0.29492 0.14844-0.0954 0.0512-0.18742 0.10363-0.27734 0.1582-0.0899 0.0546-0.17742 0.11205-0.26172 0.16992-0.0843 0.0579-0.16546 0.11677-0.24414 0.17774-0.0787 0.061-0.15546 0.12366-0.22852 0.1875-0.073 0.0638-0.14349 0.1288-0.21093 0.19531-0.0674 0.0665-0.13154 0.13417-0.19336 0.20313-0.0618 0.069-0.12154 0.13974-0.17774 0.21093-0.0562 0.0712-0.10957 0.14358-0.16015 0.2168-0.0506 0.0732-0.0976 0.14762-0.14258 0.22266-0.045 0.075-0.0876 0.14993-0.12696 0.22656-0.0393 0.0766-0.0756 0.15441-0.10937 0.23242-0.0337 0.078-0.0637 0.15714-0.0918 0.23633-0.0281 0.0792-0.0537 0.15813-0.0762 0.23828-0.0225 0.0802-0.0417 0.1613-0.0586 0.24219-0.0169 0.0809-0.0317 0.16076-0.043 0.24219-0.0112 0.0814-0.0198 0.16434-0.0254 0.24609-6e-3 0.0817-8e-3 0.16229-8e-3 0.24414 0 0.0819 2e-3 0.16435 8e-3 0.24609 6e-3 0.0817 0.0142 0.16467 0.0254 0.2461 0.0112 0.0814 0.0261 0.16129 0.043 0.24218 0.0169 0.0809 0.0361 0.16205 0.0586 0.24219 0.0225 0.0802 0.0481 0.1591 0.0762 0.23828 0.0281 0.0792 0.0581 0.15832 0.0918 0.23633 0.0337 0.078 0.07 0.1558 0.10937 0.23242 0.0393 0.0766 0.082 0.15154 0.12696 0.22657 0.045 0.075 0.092 0.14944 0.14258 0.22265 0.0506 0.0732 0.10395 0.14561 0.16015 0.2168 0.0562 0.0712 0.11592 0.14198 0.17774 0.21094 0.0618 0.069 0.12592 0.13662 0.19336 0.20312 0.0674 0.0665 0.13788 0.13148 0.21093 0.19531 0.0731 0.0638 0.14984 0.12655 0.22852 0.1875 0.0787 0.061 0.15984 0.11987 0.24414 0.17774 0.0843 0.0579 0.1718 0.11536 0.26172 0.16992 0.0899 0.0546 0.18198 0.10705 0.27734 0.1582 0.0954 0.0512 0.19447 0.1007 0.29492 0.14844 0.20092 0.0955 0.40973 0.18378 0.62891 0.26563 0.21918 0.0818 0.44701 0.15641 0.68164 0.22461s0.47734 0.12903 0.72461 0.18359c0.24728 0.0546 0.5007 0.10362 0.75781 0.14453 0.25711 0.0409 0.51712 0.0743 0.78125 0.10156 0.26414 0.0273 0.53243 0.0469 0.80078 0.0606 0.26835 0.0136 0.53689 0.0215 0.80664 0.0215 8e-3 0 0.0169 2e-5 0.0254 0z" fill="url(#l)" stroke-width="1.9365" style="paint-order:stroke fill markers"/> </g> <g transform="matrix(1.4962 0 0 1.4962 -162.48 -85.333)" stroke-width="2"> <path d="m603.11 169.98c1.6478-1.0001 4.9435-1.0002 6.5914-2.7e-4s1.6478 2.9999 0 4-4.9435 1.0002-6.5914 2.7e-4 -1.6478-2.9999 0-4z" fill="url(#c)" style="-inkscape-stroke:none;paint-order:stroke fill markers"/> </g> </g> <g transform="translate(-580.01 111.04)"> <g transform="matrix(2.2538 0 0 2.2538 -621.92 -211.65)"> <path d="m603.11 169.98c1.6478-1.0001 4.9435-1.0002 6.5914-2.7e-4s1.6478 2.9999 0 4-4.9435 1.0002-6.5914 2.7e-4 -1.6478-2.9999 0-4z" fill="#1d3557" stroke-width="2" style="-inkscape-stroke:none;paint-order:stroke fill markers"/> </g> <g transform="matrix(2.2538 0 0 2.2538 -621.94 -212.63)" stroke-width="2"> <path d="m603.11 169.98c1.6478-1.0001 4.9435-1.0002 6.5914-2.7e-4s1.6478 2.9999 0 4-4.9435 1.0002-6.5914 2.7e-4 -1.6478-2.9999 0-4z" fill="url(#c)" style="-inkscape-stroke:none;paint-order:stroke fill markers"/> </g> <g transform="matrix(1.7462 0 0 1.7462 -314.08 -125.33)"> <path d="m606.42 174.73v-5.4998h-0.0145c-0.15449 1e-5 -0.30827 3e-3 -0.46195 0.0112-0.15368 8e-3 -0.30733 0.0202-0.4586 0.0358-0.15126 0.0156-0.30016 0.0347-0.44741 0.0582-0.14724 0.0234-0.29237 0.0504-0.43399 0.0817-0.14161 0.0312-0.2806 0.0672-0.41497 0.10626-0.13437 0.0391-0.26485 0.0817-0.39036 0.12863-0.0628 0.0234-0.12432 0.0473-0.18456 0.0727-0.0602 0.0254-0.11808 0.0521-0.17561 0.0794-0.0575 0.0273-0.11428 0.0557-0.1689 0.085-0.0546 0.0293-0.10733 0.0594-0.15883 0.0906-0.0515 0.0313-0.1016 0.0642-0.14988 0.0973-0.0483 0.0331-0.0948 0.0669-0.13982 0.10178-0.0451 0.0349-0.089 0.0708-0.13086 0.10738-0.0418 0.0366-0.0822 0.0738-0.1208 0.11185-0.0386 0.0381-0.0753 0.0768-0.11074 0.11633-0.0354 0.0395-0.0696 0.08-0.10178 0.1208-0.0322 0.0408-0.0628 0.0822-0.0917 0.12416-0.029 0.0419-0.0559 0.0845-0.0816 0.12751-0.0258 0.043-0.0502 0.0859-0.0727 0.12975-0.0225 0.0439-0.0433 0.0884-0.0626 0.1331s-0.0365 0.09-0.0526 0.13534c-0.0161 0.0453-0.0308 0.0906-0.0436 0.13646-0.0129 0.0459-0.0239 0.0924-0.0336 0.1387-0.01 0.0463-0.0182 0.0921-0.0246 0.1387-6e-3 0.0466-0.0113 0.0941-0.0145 0.14093-3e-3 0.0468-4e-3 0.0929-4e-3 0.13982 0 0.0469 1e-3 0.0941 4e-3 0.14093 3e-3 0.0468 8e-3 0.0943 0.0145 0.14094 6e-3 0.0466 0.0149 0.0924 0.0246 0.13869 0.01 0.0463 0.0207 0.0928 0.0336 0.1387s0.0275 0.0911 0.0436 0.13646c0.0161 0.0453 0.0333 0.0907 0.0526 0.13534 0.0193 0.0447 0.0401 0.0892 0.0626 0.13311 0.0225 0.0439 0.047 0.0868 0.0727 0.12975 0.0257 0.043 0.0527 0.0856 0.0816 0.12751 0.029 0.0419 0.0595 0.0834 0.0917 0.12415 0.0322 0.0408 0.0664 0.0813 0.10178 0.12081 0.0354 0.0395 0.0721 0.0782 0.11074 0.11632 0.0386 0.0381 0.079 0.0753 0.1208 0.11185 0.0418 0.0366 0.0858 0.0725 0.13086 0.10738 0.0451 0.0349 0.0915 0.0687 0.13982 0.10179 0.0483 0.0331 0.0984 0.0661 0.14988 0.0973 0.0515 0.0312 0.10422 0.0613 0.15883 0.0906 0.0546 0.0293 0.11137 0.0577 0.1689 0.085 0.0575 0.0273 0.11536 0.0529 0.17561 0.0783 0.0602 0.0254 0.1218 0.0504 0.18456 0.0738 0.12551 0.0469 0.25599 0.0896 0.39036 0.12863 0.13437 0.0391 0.27336 0.0739 0.41497 0.10514 0.14162 0.0312 0.28675 0.0593 0.43399 0.0828 0.14725 0.0234 0.29615 0.0425 0.44741 0.0582 0.15127 0.0156 0.30492 0.0269 0.4586 0.0347 0.15368 8e-3 0.30746 0.0123 0.46195 0.0123 5e-3 0 0.01 1e-5 0.0145 0z" fill="url(#b)" stroke-width="2" style="paint-order:stroke fill markers"/> <path transform="matrix(.57269 0 0 .57269 179.87 71.773)" d="m744.82 179.77c0.26128-4.2e-4 0.52327-8e-3 0.7832-0.0215 0.26835-0.0137 0.53469-0.0333 0.79883-0.0606 0.26413-0.0273 0.52609-0.0606 0.7832-0.10156 0.25711-0.0409 0.51054-0.0899 0.75781-0.14453 0.24728-0.0546 0.48803-0.11538 0.72266-0.18359 0.23463-0.0682 0.46246-0.14275 0.68164-0.22461 0.10959-0.0409 0.21707-0.0846 0.32226-0.12891 0.1052-0.0443 0.20814-0.0909 0.3086-0.13867 0.10045-0.0478 0.1976-0.0973 0.29297-0.14844 0.0954-0.0512 0.18938-0.10363 0.27929-0.1582 0.0899-0.0546 0.17547-0.1101 0.25977-0.16797 0.0843-0.0579 0.16742-0.11677 0.24609-0.17774 0.0787-0.061 0.15351-0.12365 0.22657-0.1875 0.073-0.0638 0.14349-0.1288 0.21093-0.19531 0.0674-0.0665 0.13154-0.13417 0.19336-0.20312 0.0618-0.069 0.12154-0.13974 0.17774-0.21094s0.10957-0.14358 0.16015-0.2168c0.0506-0.0732 0.0976-0.14762 0.14258-0.22265 0.045-0.075 0.0876-0.14994 0.12695-0.22657 0.0393-0.0766 0.0757-0.1544 0.10938-0.23242 0.0337-0.078 0.0657-0.15714 0.0937-0.23633 0.0281-0.0792 0.0517-0.15813 0.0742-0.23828 0.0225-0.0801 0.0437-0.16129 0.0606-0.24219s0.0298-0.16271 0.041-0.24414c0.0112-0.0814 0.0198-0.16239 0.0254-0.24414 6e-3 -0.0817 0.01-0.16424 0.01-0.24609 0-0.0819-4e-3 -0.16435-0.01-0.24609-6e-3 -0.0817-0.0142-0.16272-0.0254-0.24414-0.0112-0.0814-0.0242-0.16325-0.041-0.24415-0.0169-0.0809-0.0381-0.16008-0.0606-0.24023-0.0225-0.0801-0.0461-0.16105-0.0742-0.24023-0.0281-0.0792-0.06-0.15637-0.0937-0.23438-0.0337-0.078-0.07-0.15579-0.10938-0.23242-0.0393-0.0766-0.082-0.15349-0.12695-0.22852-0.045-0.075-0.092-0.14944-0.14258-0.22265-0.0506-0.0732-0.10395-0.14366-0.16015-0.21485-0.0562-0.0712-0.11592-0.14198-0.17774-0.21093-0.0618-0.069-0.12592-0.13663-0.19336-0.20313-0.0674-0.0665-0.13788-0.13147-0.21093-0.19531-0.0731-0.0638-0.14789-0.12654-0.22657-0.1875-0.0787-0.061-0.16179-0.11987-0.24609-0.17774-0.0843-0.0579-0.16985-0.11535-0.25977-0.16992-0.0899-0.0546-0.18393-0.10705-0.27929-0.1582-0.0954-0.0512-0.19252-0.1007-0.29297-0.14844-0.10046-0.0477-0.2034-0.0943-0.3086-0.13867-0.10519-0.0443-0.21267-0.086-0.32226-0.12695-0.21918-0.0819-0.44701-0.15641-0.68164-0.22461s-0.47538-0.13099-0.72266-0.18555c-0.24727-0.0546-0.5007-0.10166-0.75781-0.14258-0.25711-0.0409-0.51907-0.0743-0.7832-0.10156-0.26414-0.0273-0.53048-0.0489-0.79883-0.0625-0.25993-0.0132-0.52192-0.0191-0.7832-0.0195z" fill="url(#a)" stroke-width="2" style="paint-order:stroke fill markers"/> <rect x="601.88" y="170.85" width="4.5678" height="1.2634" fill="url(#b)" stroke-width=".80177" style="-inkscape-stroke:none;paint-order:stroke fill markers"/> <rect x="606.45" y="170.85" width="4.4906" height="1.1605" fill="url(#a)" stroke-width="1.0371" style="-inkscape-stroke:none;paint-order:stroke fill markers"/> </g> <g transform="matrix(1.7462 0 0 1.7462 -314.08 -127.33)"> <path d="m606.42 169.23v5.4998c0.14964-2.4e-4 0.29967-5e-3 0.44853-0.0123 0.15368-8e-3 0.30621-0.019 0.45748-0.0347 0.15126-0.0156 0.30128-0.0347 0.44852-0.0582 0.14725-0.0234 0.29238-0.0515 0.43399-0.0828s0.27949-0.0661 0.41386-0.10514c0.13437-0.0391 0.26484-0.0817 0.39036-0.12863 0.12552-0.0469 0.24623-0.0986 0.36129-0.15324 0.0575-0.0274 0.11316-0.0557 0.16777-0.085 0.0546-0.0293 0.10846-0.0593 0.15995-0.0906 0.0515-0.0312 0.10049-0.0631 0.14877-0.0962 0.0483-0.0331 0.0959-0.0669 0.14093-0.10179 0.0451-0.0349 0.0879-0.0708 0.12975-0.10738 0.0418-0.0366 0.0822-0.0738 0.1208-0.11185 0.0386-0.0381 0.0753-0.0768 0.11074-0.11632 0.0354-0.0395 0.0696-0.08 0.10178-0.12081 0.0322-0.0408 0.0628-0.0822 0.0917-0.12415 0.029-0.0419 0.0559-0.0845 0.0816-0.12751 0.0258-0.043 0.0502-0.0859 0.0727-0.12975 0.0225-0.0439 0.0433-0.0884 0.0626-0.13311 0.0193-0.0447 0.0376-0.09 0.0537-0.13534 0.0161-0.0454 0.0296-0.0906 0.0425-0.13646 0.0129-0.0459 0.025-0.0924 0.0347-0.1387 0.01-0.0463 0.0171-0.0932 0.0235-0.13981 6e-3 -0.0466 0.0113-0.093 0.0145-0.13982 3e-3 -0.0468 6e-3 -0.0941 6e-3 -0.14093 0-0.0469-2e-3 -0.0941-6e-3 -0.14094-3e-3 -0.0468-8e-3 -0.0932-0.0145-0.13981-6e-3 -0.0466-0.0138-0.0935-0.0235-0.13982-0.01-0.0463-0.0218-0.0917-0.0347-0.13758-0.0129-0.0459-0.0264-0.0922-0.0425-0.13757-0.0161-0.0453-0.0344-0.0896-0.0537-0.13423-0.0193-0.0447-0.0401-0.0892-0.0626-0.1331s-0.047-0.0879-0.0727-0.13087c-0.0257-0.043-0.0527-0.0856-0.0816-0.12751-0.029-0.0419-0.0595-0.0823-0.0917-0.12304-0.0322-0.0408-0.0664-0.0813-0.10178-0.1208-0.0354-0.0395-0.0721-0.0782-0.11074-0.11633-0.0386-0.0381-0.079-0.0753-0.1208-0.11185-0.0418-0.0366-0.0847-0.0725-0.12975-0.10738-0.0451-0.0349-0.0927-0.0686-0.14093-0.10178-0.0483-0.0331-0.0973-0.0661-0.14877-0.0973-0.0515-0.0312-0.10533-0.0613-0.15995-0.0906-0.0546-0.0293-0.11025-0.0577-0.16777-0.085-0.11506-0.0547-0.23577-0.10525-0.36129-0.15212-0.12552-0.0469-0.25599-0.0896-0.39036-0.12863-0.13437-0.0391-0.27225-0.075-0.41386-0.10626-0.14161-0.0312-0.28674-0.0582-0.43399-0.0817-0.14724-0.0234-0.29726-0.0425-0.44852-0.0582-0.15127-0.0156-0.3038-0.028-0.45748-0.0358-0.14886-8e-3 -0.29889-0.011-0.44853-0.0112z" fill="url(#m)" stroke-width="2" style="paint-order:stroke fill markers"/> <path transform="matrix(.57269 0 0 .57269 179.87 72.918)" d="m744.82 168.17c-8e-3 -1e-5 -0.0169 0-0.0254 0-0.26975 1e-5 -0.53829 6e-3 -0.80664 0.0195-0.26835 0.0137-0.53664 0.0352-0.80078 0.0625-0.26413 0.0273-0.52414 0.0606-0.78125 0.10156-0.25711 0.0409-0.51053 0.088-0.75781 0.14258-0.24727 0.0546-0.48998 0.11733-0.72461 0.18555-0.23463 0.0682-0.46246 0.14275-0.68164 0.22461-0.21918 0.0819-0.42799 0.17012-0.62891 0.26562-0.10045 0.0478-0.19955 0.0973-0.29492 0.14844-0.0954 0.0512-0.18742 0.10363-0.27734 0.1582-0.0899 0.0546-0.17742 0.11205-0.26172 0.16992-0.0843 0.0579-0.16546 0.11677-0.24414 0.17774-0.0787 0.061-0.15546 0.12366-0.22852 0.1875-0.073 0.0638-0.14349 0.1288-0.21093 0.19531-0.0674 0.0665-0.13154 0.13417-0.19336 0.20313-0.0618 0.069-0.12154 0.13974-0.17774 0.21093-0.0562 0.0712-0.10957 0.14358-0.16015 0.2168-0.0506 0.0732-0.0976 0.14762-0.14258 0.22266-0.045 0.075-0.0876 0.14993-0.12696 0.22656-0.0393 0.0766-0.0756 0.15441-0.10937 0.23242-0.0337 0.078-0.0637 0.15714-0.0918 0.23633-0.0281 0.0792-0.0537 0.15813-0.0762 0.23828-0.0225 0.0802-0.0417 0.1613-0.0586 0.24219-0.0169 0.0809-0.0317 0.16076-0.043 0.24219-0.0112 0.0814-0.0198 0.16434-0.0254 0.24609-6e-3 0.0817-8e-3 0.16229-8e-3 0.24414 0 0.0819 2e-3 0.16435 8e-3 0.24609 6e-3 0.0817 0.0142 0.16467 0.0254 0.2461 0.0112 0.0814 0.0261 0.16129 0.043 0.24218 0.0169 0.0809 0.0361 0.16205 0.0586 0.24219 0.0225 0.0802 0.0481 0.1591 0.0762 0.23828 0.0281 0.0792 0.0581 0.15832 0.0918 0.23633 0.0337 0.078 0.07 0.1558 0.10937 0.23242 0.0393 0.0766 0.082 0.15154 0.12696 0.22657 0.045 0.075 0.092 0.14944 0.14258 0.22265 0.0506 0.0732 0.10395 0.14561 0.16015 0.2168 0.0562 0.0712 0.11592 0.14198 0.17774 0.21094 0.0618 0.069 0.12592 0.13662 0.19336 0.20312 0.0674 0.0665 0.13788 0.13148 0.21093 0.19531 0.0731 0.0638 0.14984 0.12655 0.22852 0.1875 0.0787 0.061 0.15984 0.11987 0.24414 0.17774 0.0843 0.0579 0.1718 0.11536 0.26172 0.16992 0.0899 0.0546 0.18198 0.10705 0.27734 0.1582 0.0954 0.0512 0.19447 0.1007 0.29492 0.14844 0.20092 0.0955 0.40973 0.18378 0.62891 0.26563 0.21918 0.0818 0.44701 0.15641 0.68164 0.22461s0.47734 0.12903 0.72461 0.18359c0.24728 0.0546 0.5007 0.10362 0.75781 0.14453 0.25711 0.0409 0.51712 0.0743 0.78125 0.10156 0.26414 0.0273 0.53243 0.0469 0.80078 0.0606 0.26835 0.0136 0.53689 0.0215 0.80664 0.0215 8e-3 0 0.0169 2e-5 0.0254 0z" fill="url(#l)" stroke-width="1.9365" style="paint-order:stroke fill markers"/> </g> <g transform="matrix(1.4962 0 0 1.4962 -162.48 -85.333)" stroke-width="2"> <path d="m603.11 169.98c1.6478-1.0001 4.9435-1.0002 6.5914-2.7e-4s1.6478 2.9999 0 4-4.9435 1.0002-6.5914 2.7e-4 -1.6478-2.9999 0-4z" fill="url(#c)" style="-inkscape-stroke:none;paint-order:stroke fill markers"/> </g> </g> <path d="m75.805 306 16.474-10.003 72.505 43.997-16.478 10.001z" fill="url(#a)" stroke-width="2" style="-inkscape-stroke:none;paint-order:stroke fill markers"/> <g stroke-width="2"> <path d="m82.392 306v-4l9.887-2.0004 9.887 5.9996-9.887 6.0004z" fill="url(#b)" style="-inkscape-stroke:none;paint-order:stroke fill markers"/> <path d="m82.392 302 9.887-6.0004 9.887 5.9996-9.887 6.0004z" fill="url(#f)" style="-inkscape-stroke:none;paint-order:stroke fill markers"/> <path d="m92.279 308v4l9.887-6.0004v-4z" fill="url(#e)" style="-inkscape-stroke:none;paint-order:stroke fill markers"/> </g> <g transform="translate(13.183 7.9995)" stroke-width="2"> <path d="m82.392 306v-4l9.887-2.0004 9.887 5.9996-9.887 6.0004z" fill="url(#j)" style="-inkscape-stroke:none;paint-order:stroke fill markers"/> <path d="m82.392 302 9.887-6.0004 9.887 5.9996-9.887 6.0004z" fill="url(#k)" style="-inkscape-stroke:none;paint-order:stroke fill markers"/> <path d="m92.279 308v4l9.887-6.0004v-4z" fill="url(#i)" style="-inkscape-stroke:none;paint-order:stroke fill markers"/> </g> <g transform="translate(26.365 15.999)" stroke-width="2"> <path d="m82.392 306v-4l9.887-2.0004 13.183 7.9995-9.887 6.0004z" fill="#b43d48" style="-inkscape-stroke:none;paint-order:stroke fill markers"/> <path d="m82.392 302 9.887-6.0004 13.183 7.9995-9.887 6.0004z" fill="url(#h)" style="-inkscape-stroke:none;paint-order:stroke fill markers"/> <path d="m95.575 310v4l9.887-6.0004v-4z" fill="url(#n)" style="-inkscape-stroke:none;paint-order:stroke fill markers"/> </g> <g transform="translate(56.026 33.998)" stroke-width="2"> <path d="m82.392 306v-4l9.887-2.0004 9.887 5.9996-9.887 6.0004z" fill="url(#b)" style="-inkscape-stroke:none;paint-order:stroke fill markers"/> <path d="m82.392 302 9.887-6.0004 9.887 5.9996-9.887 6.0004z" fill="url(#f)" style="-inkscape-stroke:none;paint-order:stroke fill markers"/> <path d="m92.279 308v4l9.887-6.0004v-4z" fill="url(#e)" style="-inkscape-stroke:none;paint-order:stroke fill markers"/> </g> <g transform="translate(42.844 25.998)" stroke-width="2"> <path d="m82.392 306v-4l9.887-2.0004 9.887 5.9996-9.887 6.0004z" fill="url(#j)" style="-inkscape-stroke:none;paint-order:stroke fill markers"/> <path d="m82.392 302 9.887-6.0004 9.887 5.9996-9.887 6.0004z" fill="url(#k)" style="-inkscape-stroke:none;paint-order:stroke fill markers"/> <path d="m92.279 308v4l9.887-6.0004v-4z" fill="url(#i)" style="-inkscape-stroke:none;paint-order:stroke fill markers"/> </g> <path d="m115.35 318 3.2957-2.0001 6.5914 3.9997-3.2957 2.0001-6.5914-3.9997" fill="url(#c)" stroke-width="2" style="-inkscape-stroke:none;paint-order:stroke fill markers"/> </g> </svg>